<svg width="999" height="600" viewBox="0 0 999 600" fill="none" xmlns="http://www.w3.org/2000/svg">
<g clip-path="url(#clip0_702_2)">
<path d="M862.314 0.165852C882.751 -0.339026 904.602 0.107305 925.138 0.117061C942.826 0.126817 962.407 -0.329268 979.943 0.229269C986.243 0.317073 992.892 0.507315 999.165 0.47073L999.087 599.934L842.514 599.99L0.0663653 599.993L0.0273438 0.0829144L563.116 0.10731L746.341 0.104872C777.187 0.104872 812.221 -0.768293 842.69 0.297561C849.019 0.304878 856.043 0.463412 862.314 0.165852ZM186.277 265.88C188.309 266.376 187.848 265.946 189.224 267.161C189.543 264.502 188.824 262.427 188.209 259.795C187.243 256.483 186.746 252.885 188.409 249.761L186.516 250.71L185.729 250.205C185.599 248.407 185.394 246.89 185.151 245.119C184.636 252.534 187.487 262.7 186.277 265.88Z" fill="#0078BF"/>
<path d="M862.311 0.165846C882.748 -0.339032 904.599 0.107299 925.136 0.117055C942.824 0.126811 962.404 -0.329274 979.941 0.229263C986.241 0.317068 992.889 0.507309 999.163 0.470724L999.085 599.934L842.511 599.99C843.353 528.868 842.76 456.146 842.604 384.954L842.582 141.978C842.582 95.2024 841.999 46.9659 842.687 0.297555C849.016 0.304872 856.041 0.463407 862.311 0.165846Z" fill="#0078BF"/>
<path d="M979.941 0.229272C986.241 0.317077 992.889 0.507319 999.163 0.470733L999.085 599.934L842.511 599.99C843.353 528.868 842.76 456.146 842.604 384.954L842.582 141.978C842.582 95.2024 841.999 46.9659 842.687 0.297565C849.016 0.304882 856.041 0.463416 862.311 0.165855L862.263 276.015L862.233 356.59C862.231 370.481 861.197 388.739 863.255 402.081C870.509 449.137 935.489 460.742 966.324 428.881C984.068 410.546 979.926 380.273 979.924 356.241L979.919 276.827L979.941 0.229272Z" fill="#FBB201"/>
<path d="M916.431 458.79C959.29 455.232 970.473 479.388 954.246 515.583C945.031 536.134 934.158 552.188 923.531 571.734L922.202 573.956L921.18 574.139C919.585 572.315 913.199 561.829 911.57 559.012C899.639 537.932 883.239 514.568 880.707 489.995C878.263 466.263 897.499 460.139 916.431 458.79Z" fill="#0078BF"/>
<path d="M119.941 141.268C122.709 143.117 123.894 144.024 126.371 146.244L127.746 147.171C126.471 147.946 126.896 147.766 125.535 148.159C126.244 150.868 127.152 152.207 129.516 153.912L130.393 153.729C129.887 151.89 129.779 151.624 129.634 149.651C131.143 149.139 131.682 149.883 133.66 150.8L134.766 149.805C134.782 147.832 134.758 147.602 135.183 145.588C136.531 145.685 139.198 148.371 140.81 149.59C142.211 148.898 143.159 148.051 144.594 148.998C147.394 150.844 149.306 150.693 152.172 151.485C153.201 150.373 158.704 146.659 160.46 145.307C161.474 147.095 161.367 146.185 160.879 148.112L157.93 149.78C157.494 152.971 160.884 157.398 162.055 160.463C165.43 160.637 166.499 161.432 168.718 163.9C178.089 174.327 202.772 221.978 201.918 235.768C201.811 237.483 201.608 238.702 200.645 240.173L199.799 240.873C200.906 242.071 201.704 242.42 201.365 244.234C200.538 248.676 197.782 253.349 196.918 257.69C196.043 262.1 196.852 273.339 195.026 276.866C195.016 278.429 195.155 277.922 194.645 279.339C197.099 285.361 199.301 296.11 198.069 302.48C199.421 307.266 203.94 317.207 202.333 320.812C204.289 325.937 205.543 330.715 207.074 335.941C207.513 337.437 208.618 339.293 208.891 340.471C211.394 341.788 214.691 343.461 213.769 346.685C212.391 347.524 211.64 347.905 210.174 348.59L209.628 349.695C210.543 352.093 213.13 350.912 214.277 353.573C211.177 356.788 184.187 354.344 178.318 354.271C179.148 357.585 181.743 365.7 180.472 368.285C181.769 371.495 184.126 375.966 182.982 379.107C183.867 381.976 183.994 382.705 184.248 385.7L183.616 386.824L182.982 386.929L181.757 388.076C183.611 392.685 184.828 396.893 185.479 401.822C185.216 402.222 184.828 402.888 184.511 403.19L184.389 403.744C188.191 407.078 189.15 427.054 190.243 432.795C190.93 436.4 190.367 442.137 185.984 443.359L185.145 444.495C187.069 447.732 189.318 455.263 189.857 458.985L191.052 459.919C193.289 460.402 208.499 473.802 210.677 476.263C211.93 477.681 211.745 481.998 213.884 486.044C220.394 490.563 221.443 500.988 224.806 506.622C226.828 510.005 232.565 513.949 235.33 518.327C235.396 518.998 235.528 519.959 235.516 520.605C238.389 523.79 242.182 526.798 245.772 529.146C253.172 529.641 271.979 529.193 276.216 533.646C276.43 534.256 276.923 535.554 277.082 536.207C277.962 540.822 272.145 544.066 268.679 546.815L263.021 551.071C249.335 561.315 235.704 559.393 219.179 558.963C217.116 553.998 214.95 545.376 214.508 540.098C212.655 517.846 197.623 525.722 184.73 515.963L188.387 522.107C190.318 525.854 192.113 528.246 191.594 532.424L191.299 533.268C184.599 539.493 181.43 539.339 172.357 540.371C168.36 531.841 163.684 523.649 158.369 515.871C148.506 516.066 137.278 516.846 127.473 515.654C119.826 514.668 112.198 513.537 104.594 512.261C98.3117 511.159 89.3512 508.954 83.4056 509.317C83.2395 513.593 80.6975 520.039 79.138 524.212C89.6844 546.363 99.4524 543.49 120.884 548.529C123.575 549.161 124.121 552.024 124.084 554.385C118.289 561.168 75.9895 556.205 65.7697 558.522C61.9078 559.395 49.0734 559.144 44.2219 559.076L46.2953 550.427L45.9241 549.778L42.4963 549.337C41.5746 552.661 40.1924 560.671 34.1422 559C32.377 558.512 32.2105 557.807 31.4688 556.341C31.6968 553.934 32.2322 553.019 34.4278 551.89C36.1787 549.066 36.1519 545.763 37.6724 541.832L37.2844 541.188C37.1702 538.607 41.2636 528.573 42.74 527.227C44.9905 520.607 47.2861 514.002 49.6268 507.415L49.4117 507.024C49.9319 501.624 50.6748 496.239 54.2814 491.898C57.3729 484.422 65.1205 468.178 66.5456 460.61C68.4927 450.268 66.8783 432.805 67.9753 421.641C69.5429 405.693 73.4005 390.712 76.5558 375.071L72.5317 371.415C70.5341 354.451 75.4878 358.234 76.8185 346.834C76.8309 334.366 78.0529 314.359 75.6017 302.598C71.3887 282.388 54.4827 275.7 55.6553 252.4C56.5797 251.166 57.4714 249.905 58.3297 248.622C62.5578 242.21 55.2056 240.007 61.2697 233.198C60.7231 231.798 61.0458 231.012 61.2929 229.493C64.2187 225.205 64.2036 223.902 68.1205 220.034C68.5763 214.741 73.0541 214.495 71.6439 209.468C70.3373 204.81 73.9207 197.683 75.8844 193.354C80.8485 182.412 84.5548 171.812 92.298 162.449C94.1431 158.044 112.347 145.859 116.991 146.61L117.384 146.102C116.876 143.768 118.463 142.893 119.941 141.268ZM186.279 265.88C188.311 266.376 187.85 265.946 189.226 267.161C189.545 264.502 188.826 262.427 188.211 259.795C187.245 256.483 186.748 252.885 188.411 249.761L186.518 250.71L185.73 250.205C185.601 248.407 185.396 246.89 185.152 245.119C184.638 252.534 187.489 262.7 186.279 265.88Z" fill="#2B2A2A"/>
<path d="M119.936 141.268C122.704 143.117 123.889 144.024 126.366 146.244L127.741 147.171C126.466 147.946 126.891 147.766 125.53 148.159C126.239 150.868 127.147 152.207 129.511 153.912L130.388 153.729C129.881 151.89 129.774 151.624 129.629 149.651C131.138 149.139 131.677 149.883 133.655 150.8L134.761 149.805C134.777 147.832 134.753 147.602 135.178 145.588C136.526 145.685 139.193 148.371 140.805 149.59C142.206 148.898 143.154 148.051 144.589 148.998C147.389 150.844 149.301 150.693 152.167 151.485C153.196 150.373 158.699 146.659 160.455 145.307C161.469 147.095 161.362 146.185 160.874 148.112L157.925 149.78C157.489 152.971 160.879 157.398 162.05 160.463C165.425 160.637 166.494 161.432 168.713 163.9C178.084 174.327 202.767 221.978 201.913 235.768C201.806 237.483 201.603 238.702 200.64 240.173L199.794 240.873C200.901 242.071 201.699 242.42 201.36 244.234C200.533 248.676 197.777 253.349 196.913 257.69C196.038 262.1 196.847 273.339 195.021 276.866C195.011 278.429 195.15 277.922 194.64 279.339C197.094 285.361 199.296 296.11 198.064 302.48C199.416 307.266 203.935 317.207 202.328 320.812C204.284 325.937 205.538 330.715 207.069 335.941C207.508 337.437 208.613 339.293 208.886 340.471C211.389 341.788 214.686 343.461 213.764 346.685C212.386 347.524 211.635 347.905 210.169 348.59L209.623 349.695C210.538 352.093 213.125 350.912 214.272 353.573C211.172 356.788 184.181 354.344 178.313 354.271C179.142 357.585 181.738 365.7 180.467 368.285C181.764 371.495 184.121 375.966 182.977 379.107C183.862 381.976 183.989 382.705 184.242 385.7L183.611 386.824L182.977 386.929L181.752 388.076C183.606 392.685 184.823 396.893 185.474 401.822C185.211 402.222 184.823 402.888 184.506 403.19L184.384 403.744C188.186 407.078 189.145 427.054 190.238 432.795C190.925 436.4 190.362 442.137 185.979 443.359C182.803 437.998 181.796 435.515 176.45 431.9L171.745 428.476L170.311 427.207L169.686 422.69C168.294 418.559 161.408 412.007 158.425 407.912C158.472 406.222 157.828 404.771 156.684 403.566C155.928 400.337 155.125 395.788 151.301 394.919C147.703 394.293 148.657 392.841 148.123 389.771C144.959 371.549 141.606 353.546 140.029 335.08C139.784 332.222 136.275 327.09 135.856 324.166C135.275 320.11 135.23 316.749 134.256 312.68L134.047 311.824C134.572 309.154 135.79 306.163 136.752 303.573C136.75 299.937 136.175 297.895 135.364 294.429C135.2 292.473 135.147 291.763 134.65 289.798C132.462 283.795 131.55 265.544 131.089 258.383C128.345 254.69 134.072 251.534 127.562 249.505L127.455 249.007C125 247.761 125.714 243.841 125.775 241.319C126.142 230.678 126.959 217.134 127.756 206.607C122.692 204.478 124.102 201.639 119.33 200.624C115.684 193.629 121.891 178.268 113.789 173.149C111.205 171.912 111.958 172.202 110.078 169.566L109.053 168.783C107.266 167.81 108.048 168.468 106.902 166.454C106.427 164.19 107.027 164.939 105.438 163.851C101.444 164.422 101.663 164.812 98.8818 162.134C96.7435 161.237 94.6339 161.978 92.293 162.449C94.1381 158.044 112.342 145.859 116.986 146.61L117.379 146.102C116.871 143.768 118.458 142.893 119.936 141.268ZM186.274 265.88C188.306 266.376 187.845 265.946 189.221 267.161C189.54 264.502 188.821 262.427 188.206 259.795C187.24 256.483 186.742 252.885 188.406 249.761L186.513 250.71L185.725 250.205C185.596 248.407 185.391 246.89 185.147 245.119C184.633 252.534 187.484 262.7 186.274 265.88Z" fill="#FCFBFC"/>
<path d="M185.153 245.12C185.397 246.89 185.601 248.407 185.731 250.205L186.519 250.71L188.411 249.761C186.748 252.885 187.245 256.483 188.211 259.795C188.826 262.427 189.545 264.502 189.226 267.161C187.85 265.946 188.311 266.376 186.28 265.881C187.489 262.7 184.638 252.534 185.153 245.12Z" fill="#B3B2B4" fill-opacity="0.976471"/>
<path d="M177.841 277.422C177.806 272.585 175.263 264.768 176.697 262.024L177.777 262.122L179.345 264.127L180.031 263.319C189.775 273.524 190.767 288.598 198.063 302.48C199.414 307.266 203.933 317.207 202.326 320.812C204.282 325.937 205.536 330.715 207.067 335.941C207.506 337.437 208.611 339.293 208.884 340.471C211.387 341.788 214.684 343.461 213.763 346.685C212.384 347.524 211.633 347.905 210.167 348.59L209.621 349.695C210.536 352.093 213.124 350.912 214.27 353.573C211.17 356.788 184.18 354.344 178.311 354.271C179.141 357.585 181.736 365.7 180.465 368.285C169.948 354.429 152.365 320.749 149.967 303.515C150.08 299.602 148.336 294.424 150.421 291.18C152.421 291.529 151.445 291.124 153.111 293.19L154.694 292.695L155.365 290.927L156.911 290.724L158.694 288.319L159.926 288.422C160.85 286.695 161.038 286.319 161.711 284.38C162.836 281.285 162.926 280.678 163.214 277.385C164.236 279.578 164.184 280.932 166.809 281.278C167.889 280.722 168.989 280.515 170.18 280.188C173.909 275.829 170.067 274.202 171.819 268.31C173.484 268.963 174.658 269.237 175.87 270.544C176.484 273.288 176.255 275.078 177.841 277.422Z" fill="#2B2A2A"/>
<path d="M177.84 277.422C177.806 272.585 175.262 264.768 176.696 262.024L177.776 262.122L179.345 264.127L180.03 263.319C189.774 273.524 190.767 288.598 198.062 302.48C199.413 307.266 203.932 317.207 202.325 320.812C204.281 325.937 205.535 330.715 207.067 335.941C207.506 337.437 208.61 339.293 208.884 340.471C206.047 341.505 203.215 342.556 200.391 343.624C201.693 341.541 202.393 340.749 202.903 338.402L201.996 337.82C199.437 338.107 198.362 338.48 196.071 337.561C194.913 335.885 195.067 336.744 195.274 334.976C196.728 334 196.32 334.434 197.364 333.083C196.971 331.424 189.767 314.115 188.869 312.551L187.459 312.819C186.459 311.466 185.491 310.088 184.554 308.69C183.971 305.049 181.869 297.89 180.974 293.585C179.962 288.719 178.967 281.839 177.84 277.422Z" fill="#FCFBFC"/>
<path d="M180.029 263.32C189.773 273.524 190.766 288.598 198.061 302.48C199.412 307.266 203.932 317.207 202.324 320.812C198.368 312.971 193.661 303.771 190.756 295.544C186.771 284.263 184.407 275.151 179.344 264.127L180.029 263.32Z" fill="black"/>
<path d="M149.967 303.515C150.08 299.602 148.336 294.424 150.421 291.18C152.421 291.529 151.445 291.124 153.111 293.19L154.694 292.695C155.17 293.902 156.289 298.349 156.536 298.771C157.55 302.485 158.624 306.188 159.75 309.871L156.702 312.976L157.245 313.637C161.645 315.72 160.116 318.261 163.692 319.717C164.014 322.851 163.965 324.39 163.826 327.556C166.05 334.793 168.419 343.137 173.465 348.893L174.172 348.776L173.965 348.144C174.665 345.629 174.658 345.505 176.438 343.693C177.977 347.834 178.016 349.895 178.311 354.271C179.141 357.585 181.736 365.7 180.465 368.285C169.948 354.429 152.365 320.749 149.967 303.515Z" fill="url(#paint0_linear_702_2)"/>
<path d="M153.117 293.19L154.7 292.695C155.176 293.902 156.295 298.349 156.542 298.771C157.556 302.485 158.629 306.188 159.756 309.871L156.707 312.976C155.32 309.341 154.027 297.854 153.117 293.19Z" fill="black"/>
<path d="M157.25 313.637C161.65 315.72 160.121 318.261 163.696 319.717C164.018 322.851 163.97 324.39 163.83 327.556C161.491 322.749 158.874 318.732 157.25 313.637Z" fill="#353B3B"/>
<path d="M156.535 298.771L157.433 297.312C160.006 297.085 160.511 297.961 161.403 300.434C162.323 298.715 161.662 299.429 163.745 298.529L164.833 300.019C165.479 305.19 166.186 310.351 166.952 315.505C168.247 319.178 174.257 345.137 173.964 348.144L174.172 348.776L173.464 348.893C168.418 343.137 166.05 334.793 163.825 327.556C163.964 324.39 164.013 322.851 163.691 319.717C160.116 318.261 161.645 315.719 157.245 313.637L156.701 312.976L159.75 309.871C158.623 306.188 157.55 302.485 156.535 298.771Z" fill="black"/>
<path d="M156.535 298.771L157.433 297.312C160.006 297.085 160.511 297.961 161.403 300.434C161.896 303.417 162.474 306.224 162.501 309.246C161.913 309.373 160.216 309.698 159.75 309.871C158.623 306.188 157.55 302.485 156.535 298.771Z" fill="#8F9093"/>
<path d="M159.756 309.871C160.222 309.698 161.919 309.373 162.507 309.246C162.983 312.561 163.678 316.42 163.697 319.717C160.122 318.261 161.651 315.72 157.251 313.637L156.707 312.976L159.756 309.871Z" fill="#B3B2B4"/>
<path d="M163.219 277.385C164.241 279.578 164.189 280.932 166.814 281.278C169.126 287.622 169.875 288.71 169.807 295.463L169.507 300.007L168.914 300.524C167.485 300.261 166.294 299.961 164.838 300.019L163.75 298.529C161.668 299.429 162.328 298.715 161.409 300.434C160.516 297.961 160.011 297.085 157.438 297.312L156.541 298.771C156.294 298.349 155.175 293.902 154.699 292.695L155.37 290.927L156.916 290.724L158.699 288.319L159.931 288.422C160.855 286.695 161.043 286.319 161.716 284.38C162.841 281.285 162.931 280.678 163.219 277.385Z" fill="#CED1D4"/>
<path d="M155.37 290.927L156.916 290.724L158.699 288.32L159.931 288.422C159.721 293.071 163.06 292.661 163.75 298.529C161.668 299.429 162.328 298.715 161.409 300.434C160.516 297.961 160.011 297.085 157.438 297.312L156.541 298.771C156.294 298.349 155.175 293.902 154.699 292.695L155.37 290.927Z" fill="#353B3B"/>
<path d="M166.961 315.505L168.234 312.054L168.807 311.99C169.515 313.488 169.993 314.683 170.993 316.019C173.476 326.132 174.883 333.256 176.446 343.693C174.666 345.505 174.673 345.629 173.973 348.144C174.266 345.137 168.256 319.178 166.961 315.505Z" fill="#CED1D4"/>
<path d="M184.555 308.69C185.491 310.088 186.46 311.466 187.46 312.819L188.869 312.551C188.208 316.361 191.75 329.841 192.521 335.229C185.062 326.205 185.325 319.637 184.555 308.69Z" fill="#EBEBED"/>
<path d="M169.804 295.463C170.899 302.824 169.312 310.093 170.987 316.019C169.987 314.683 169.509 313.488 168.802 311.99L168.229 312.054L166.955 315.505C166.19 310.351 165.482 305.19 164.836 300.019C166.292 299.961 167.482 300.261 168.912 300.524L169.504 300.007L169.804 295.463Z" fill="#B3B2B4"/>
<path d="M128.164 166.178C131.954 178.144 135.936 190.21 140.057 202.083C141.34 205.78 141.872 214.054 142.33 218.239C142.616 220.039 142.679 220.998 143.416 222.695L145.977 223.261C148.421 225.212 150.782 227.115 152.458 229.834C154.209 235.641 159.004 250.729 158.204 256.066C158.168 256.954 158.056 258.251 158.158 259.09L158.39 260.273C159.741 267.351 159.231 270.549 163.221 277.385C162.934 280.678 162.843 281.285 161.719 284.38C161.046 286.319 160.858 286.695 159.934 288.422L158.702 288.32L156.919 290.724L155.373 290.927L154.702 292.695L153.119 293.19C151.453 291.124 152.429 291.529 150.429 291.18C148.343 294.424 150.087 299.602 149.975 303.515L149.292 303.044C149.019 303.878 148.79 304.585 148.548 305.434L147.963 305.654C147.956 305.659 147.946 305.663 147.938 305.666C147.621 304.21 147.76 304.961 147.529 303.412L146.946 304.683C146.817 304.371 145.704 297.807 145.524 296.961C143.801 288.922 142.517 280.424 140.312 272.529C140 271.268 137.117 267.771 136.778 266.476C135.454 261.417 136.182 253.005 136.357 247.715C133.067 233.971 133.477 211.666 131.976 197.1C130.941 187.066 128.687 175.995 128.164 166.178Z" fill="url(#paint1_linear_702_2)"/>
<path d="M142.323 218.239C142.61 220.039 142.673 220.998 143.409 222.695L145.971 223.261C148.415 225.212 150.776 227.115 152.451 229.834C154.203 235.641 158.998 250.729 158.198 256.066L154.403 257.293L153.978 258.859C151.159 260.122 149.976 259.005 147.554 257.356C145.783 247.068 141.976 227.851 142.323 218.239Z" fill="#EBEBED"/>
<path d="M152.451 229.834C154.202 235.641 158.997 250.729 158.197 256.066L154.402 257.293C152.463 249.678 150.975 241.005 149.266 233.198L152.451 229.834Z" fill="black"/>
<path d="M149.269 233.198C148.164 229.273 144.996 226.524 145.974 223.261C148.418 225.212 150.779 227.115 152.455 229.834L149.269 233.198Z" fill="#2B2A2A"/>
<path d="M154.4 257.293L158.195 256.066C158.158 256.954 158.046 258.251 158.148 259.09L158.38 260.273C159.731 267.351 159.222 270.549 163.212 277.385C162.924 280.678 162.834 281.285 161.709 284.38C161.036 286.32 160.848 286.695 159.924 288.422L158.692 288.32L156.909 290.724L155.363 290.927C151.878 282.307 149.27 266.69 147.551 257.356C149.973 259.005 151.156 260.122 153.975 258.859L154.4 257.293Z" fill="#B3B2B4"/>
<path d="M161.71 284.38C159.892 280.449 154.463 263.2 156.036 259.666L158.149 259.09L158.38 260.273C159.731 267.351 159.222 270.549 163.212 277.385C162.924 280.678 162.834 281.285 161.71 284.38Z" fill="#6E7374"/>
<path d="M136.354 247.715C137.419 249.385 137.862 249.705 139.377 250.871C140.603 257.261 143.01 266.824 140.309 272.529C139.997 271.268 137.113 267.771 136.774 266.476C135.45 261.417 136.178 253.005 136.354 247.715Z" fill="#6E7374"/>
<path d="M162.051 160.463C165.426 160.637 166.495 161.432 168.714 163.9C178.085 174.327 202.768 221.978 201.914 235.768C201.807 237.483 201.604 238.702 200.641 240.173L199.795 240.873C188.382 232.905 184.948 204.334 178.741 191.588C174.119 182.102 168.548 173.463 163.751 164.19C162.573 162.561 162.319 162.483 162.051 160.463Z" fill="black"/>
<path d="M162.051 160.463C165.426 160.637 166.495 161.432 168.714 163.9C178.085 174.327 202.768 221.978 201.914 235.768C201.807 237.483 201.604 238.702 200.641 240.173C199.297 237.563 194.375 222.585 193.419 218.898C190.656 208.246 172.424 170.124 165.112 163.854L163.751 164.19C162.573 162.561 162.319 162.483 162.051 160.463Z" fill="#EBEBED"/>
<path d="M181.578 235.259L181.954 236.095L183.422 235.971L185.154 245.119C184.639 252.534 187.49 262.7 186.281 265.88C188.312 266.376 187.851 265.946 189.227 267.161C190.793 272.317 191.856 274.598 194.647 279.339C197.1 285.361 199.303 296.11 198.071 302.48C190.776 288.598 189.783 273.524 180.039 263.32C175.488 253.139 175.373 254.261 171.715 243.085L173.244 241.722C174.52 240.751 175.249 239.915 176.803 239.927C177.778 242.546 177.783 242.68 179.81 244.498C180.076 243.112 179.376 238.066 179.227 236.261L181.578 235.259Z" fill="#FCFBFC"/>
<path d="M181.574 235.259L181.949 236.095L183.418 235.971L185.149 245.119C184.635 252.534 187.486 262.7 186.276 265.88L185.137 265.556C181.889 261.371 182.04 250.817 181.889 245.6L179.806 244.498C180.071 243.112 179.371 238.066 179.223 236.261L181.574 235.259Z" fill="black"/>
<path d="M181.574 235.259L181.949 236.095C181.945 239.007 182.035 242.761 181.889 245.6L179.806 244.498C180.071 243.112 179.371 238.066 179.223 236.261L181.574 235.259Z" fill="#EBEBED"/>
<path d="M146.941 304.683L147.524 303.412C147.756 304.961 147.617 304.21 147.934 305.666C147.941 305.663 147.951 305.658 147.958 305.654L148.544 305.434C148.785 304.585 149.015 303.878 149.288 303.044L149.971 303.515C152.368 320.749 169.951 354.429 180.468 368.285C181.766 371.495 184.122 375.966 182.978 379.107C181.963 377.356 181.532 376.185 180.788 374.334C179.051 371.719 176.324 368.966 174.539 365.949C165.437 350.551 153.2 333.076 148.207 315.883C147.415 313.154 147.122 307.512 146.941 304.683Z" fill="black"/>
<path d="M164.775 204.102C161.075 202.451 160.141 202.059 158.531 197.546C156.282 191.234 154.724 184.937 152.238 178.644L152.604 177.59C157.282 178.61 159.18 189.7 161.377 193.561C163.67 197.588 167.616 200.507 170.292 204.283C173.682 210.583 178.238 229.039 179.224 236.261C179.372 238.066 180.072 243.112 179.807 244.498C177.78 242.681 177.775 242.546 176.799 239.927C176.55 235.566 171.35 222.541 169.868 215.144C168.702 211.383 166.95 207.388 164.775 204.102Z" fill="black"/>
<path d="M164.769 204.102C166.945 207.388 168.696 211.383 169.862 215.144C171.345 222.541 176.545 235.566 176.794 239.927C175.24 239.915 174.511 240.751 173.235 241.722L171.706 243.085L170.677 243.285C168.581 239.539 166.92 230.132 165.391 225.681C163.496 220.166 161.574 214.29 159.938 208.695C160.15 208.117 160.362 207.539 160.572 206.961C162.623 205.334 161.506 205.727 163.962 205.549L164.769 204.102Z" fill="black"/>
<path d="M169.868 215.144C171.35 222.541 176.55 235.566 176.799 239.927C175.246 239.915 174.516 240.751 173.241 241.722C175.048 236.732 169.965 225.563 167.758 220.72C170.116 218.695 169.609 218.278 169.868 215.144Z" fill="#CED1D4"/>
<path d="M164.773 204.102C166.949 207.388 168.7 211.383 169.866 215.144C169.607 218.278 170.115 218.695 167.756 220.72C166.864 219.056 161.993 210.841 162.412 209.529C162.82 208.261 164.027 209.517 163.966 205.549L164.773 204.102Z" fill="#EBEBED"/>
<path d="M119.336 200.624C121.142 199.12 121.35 199.446 121.502 196.449C121.929 188.054 121.431 179.134 120.505 170.788C120.141 167.51 118.34 161.107 118.494 158.41L119.302 158.044C124.596 161.824 123.752 189.841 125.407 196.605C125.792 198.176 127.525 198.993 128.756 199.754C129.534 202.515 128.742 203.676 127.762 206.607C122.698 204.478 124.108 201.639 119.336 200.624Z" fill="#6E7374"/>
<path d="M130.388 153.729C129.881 151.89 129.773 151.624 129.629 149.651C131.137 149.139 131.677 149.883 133.655 150.8L133.495 154.185C136.998 164.781 140.564 171.451 146.913 180.427C144.702 181.505 144.594 181.039 144.045 183.568C143.371 181.576 143.017 179.376 140.973 178.624C139.503 180.139 139.558 181.554 139.224 183.685C138.655 181.695 138.603 180.917 137.193 179.373C137.395 178.905 137.598 178.437 137.8 177.968C134.992 170.293 132.203 161.473 130.388 153.729Z" fill="#EBEBED"/>
<path d="M119.939 141.268C122.707 143.117 123.892 144.024 126.369 146.244L127.743 147.171C126.469 147.946 126.894 147.766 125.533 148.159C126.242 150.868 127.149 152.207 129.514 153.912L130.391 153.729C132.206 161.473 134.995 170.293 137.803 177.968C137.601 178.437 137.399 178.905 137.196 179.373C132.936 173.305 130.69 163.585 128.796 156.373C124.652 155.127 118.994 150.515 116.988 146.61L117.381 146.102C116.873 143.768 118.46 142.893 119.939 141.268Z" fill="#353B3B"/>
<path d="M119.935 141.268C122.703 143.117 123.889 144.024 126.365 146.244C123.969 147.412 120.103 146.522 117.378 146.102C116.87 143.768 118.457 142.893 119.935 141.268Z" fill="#EBEBED"/>
<path d="M170.684 243.285L171.713 243.085C175.371 254.261 175.486 253.139 180.037 263.32L179.352 264.127L177.784 262.122L176.703 262.024C175.269 264.768 177.813 272.585 177.847 277.422C176.262 275.078 176.491 273.288 175.876 270.544C174.664 269.237 173.491 268.963 171.825 268.31C171.571 261.927 171.54 249.029 170.684 243.285Z" fill="url(#paint2_linear_702_2)"/>
<path d="M133.5 154.185L134.716 154.171C138.615 160.073 149.139 177.322 149.11 183.934C147.664 183.078 147.72 182.324 146.917 180.427C140.568 171.451 137.002 164.78 133.5 154.185Z" fill="black"/>
<path d="M153.574 158.273L155.908 158.044C157.857 167.849 168.743 181.468 167.347 189.951L166.416 189.824C164.667 186.461 163.462 182.61 162.021 179.027C159.462 172.671 155.294 164.824 153.574 158.273Z" fill="#4D5156"/>
<path d="M140.805 149.59C142.205 148.898 143.153 148.051 144.589 148.998C147.388 150.844 149.301 150.693 152.166 151.485C154.769 153.976 155.662 154.437 155.908 158.044L153.574 158.273C152.101 156.527 149.815 155.424 147.808 154.246C144.914 154.424 142.675 151.512 140.805 149.59Z" fill="black"/>
<path d="M188.209 259.795C187.244 256.483 186.746 252.885 188.409 249.761L190.17 253.085C190.529 262.329 190.766 268.544 195.024 276.866C195.014 278.429 195.153 277.922 194.644 279.339C191.853 274.598 190.79 272.317 189.224 267.161C189.544 264.502 188.824 262.427 188.209 259.795Z" fill="#4D5156"/>
<path d="M188.209 259.795C187.244 256.483 186.746 252.885 188.409 249.761L190.17 253.085C189.831 255.812 190.095 258.149 188.209 259.795Z" fill="black"/>
<path d="M139.227 183.685C139.561 181.554 139.505 180.139 140.975 178.624C143.019 179.376 143.373 181.576 144.048 183.568C143.855 185.302 142.708 187.471 142.903 189.22C143.282 192.61 145.669 196.041 144.284 199.32L143.212 198.968C140.404 195.193 142.236 188.095 139.227 183.685Z" fill="black"/>
<path d="M169.684 422.69C174.927 423.29 181.635 424.985 176.447 431.9L171.742 428.476L170.308 427.207L169.684 422.69Z" fill="#EBEBED"/>
<path d="M127.457 249.007C128.739 243.349 130.414 234.788 132.572 229.666C131.918 240.168 131.367 247.832 131.091 258.383C128.347 254.69 134.074 251.534 127.564 249.505L127.457 249.007Z" fill="#4D5156"/>
<path d="M133.659 150.8L134.765 149.805C134.781 147.832 134.757 147.602 135.182 145.588C136.53 145.685 139.197 148.371 140.809 149.59C142.68 151.512 144.919 154.424 147.812 154.246C146.988 155.176 146.586 155.466 146.022 156.539C143.236 154.946 141.82 153.754 139.33 151.788L138.315 152.024L136.349 150.924L135.339 151.31C135.137 152.212 134.864 153.276 134.716 154.171L133.5 154.185L133.659 150.8Z" fill="#CED1D4"/>
<path d="M180.785 374.334C181.529 376.185 181.961 377.356 182.976 379.107C183.861 381.976 183.988 382.705 184.242 385.7L183.61 386.824L182.976 386.929C181.481 384.207 179.081 379.419 177.098 377.29C179.9 375.993 179.01 376.812 180.785 374.334Z" fill="#EBEBED"/>
<path d="M174.23 388.195C178.809 394.673 178.338 396.595 184.509 403.19L184.387 403.744C181.196 403.115 180.501 402.512 177.706 400.861C176.887 396.434 175.562 392.488 174.23 388.195Z" fill="#2B2A2A"/>
<path d="M177.096 377.29C179.078 379.419 181.478 384.207 182.974 386.929L181.749 388.076C178.2 383.844 176.754 382.529 177.096 377.29Z" fill="black"/>
<path d="M138.309 152.024L139.324 151.788C141.814 153.754 143.23 154.946 146.016 156.539C146.441 158 146.475 157.9 146.18 159.38L145.088 159.344C142.393 157.312 140.436 154.644 138.309 152.024Z" fill="#4D5156"/>
<path d="M181.575 235.259C181.292 232.8 180.87 231.524 181.804 229.354C183.465 230.878 183.28 233.624 183.419 235.971L181.951 236.095L181.575 235.259Z" fill="#4D5156"/>
<path d="M159.799 228.561C165.131 231.712 165.475 241.666 167.879 246.702C168.696 248.412 168.675 248.227 169.306 250.168C167.126 249.378 166.955 249.468 165.257 247.798C164.37 242.524 159.118 231.49 159.799 228.561Z" fill="black"/>
<path d="M191.048 459.919C193.285 460.402 208.495 473.802 210.673 476.263C211.927 477.681 211.741 481.998 213.88 486.044C220.39 490.563 221.439 500.988 224.802 506.622C226.824 510.005 232.561 513.949 235.326 518.327C235.392 518.998 235.524 519.959 235.512 520.605C238.385 523.79 242.178 526.798 245.768 529.146C253.168 529.642 271.975 529.193 276.212 533.646C276.426 534.256 276.919 535.554 277.078 536.207C277.958 540.822 272.141 544.066 268.675 546.815L263.017 551.071C262.839 549.059 261.909 548.002 260.29 546.888L259.026 547.354C252.941 544.581 251.451 545.929 246.097 549.085C243.734 542.578 243.809 542.812 237.739 540.617C235.378 539.766 238.09 531.09 237.783 528.017L236.848 527.256C235.456 527.471 234.514 527.561 233.109 527.659C223.907 519.966 218.99 514.737 212.997 504.302C212.222 502.954 209.534 503.141 208.029 503.024C205.846 501.293 208.544 499.934 206.426 498.515C204.37 497.134 201.285 497.151 199.756 494.334L200.163 493.585C201.936 493.617 203.041 493.737 204.787 493.307C204.356 491.522 197.312 484.795 195.578 482.976C194.119 481.327 193.756 481.059 192.909 478.959L190.975 475.937L189.519 477.198C187.27 474.795 187.614 474.129 187.448 470.534L187.168 470.02C187.77 466.905 189.736 462.927 191.048 459.919Z" fill="#FCFBFC"/>
<path d="M213.883 486.044C220.393 490.563 221.441 500.988 224.805 506.622C226.827 510.005 232.563 513.949 235.329 518.327C235.395 518.998 235.527 519.959 235.515 520.605C230.817 517.737 217.188 507.402 218.022 501.2L219.717 500.134C220.115 498.759 215.178 489.963 213.883 486.044Z" fill="black"/>
<path d="M277.078 536.207C277.959 540.822 272.142 544.066 268.676 546.815C266.444 545.727 266.113 545.72 264.871 543.702C269.12 540.671 272.259 538.244 277.078 536.207Z" fill="black"/>
<path d="M260.29 546.888C258.902 544.954 258.922 545.068 258.383 542.768L259.175 541.976L261.834 542.302C263.105 543.339 263.244 543.5 264.871 543.702C266.112 545.72 266.444 545.727 268.675 546.815L263.017 551.071C262.839 549.059 261.91 548.002 260.29 546.888Z" fill="black"/>
<path d="M187.453 470.534C190.18 469.798 189.658 469.449 191.487 470.437C192.104 472.429 191.485 473.868 190.98 475.937L189.524 477.198C187.275 474.795 187.619 474.129 187.453 470.534Z" fill="black"/>
<path d="M92.4232 253.715C98.8105 256.32 93.8244 261.256 95.0783 263.11C99.9002 270.232 107.771 275.132 114.087 280.651C121.265 286.924 125.462 299.512 128.524 308.1C128.39 311.1 128.812 311.793 126.3 314.093C124.496 315.78 125.126 315.683 123.049 316.068C119.589 314.876 115.474 314.141 115.453 309.924C116.342 309.144 117.228 308.356 118.108 307.561L117.744 306.273C116.266 305.466 115.644 305.368 114.924 303.89C115.985 301.149 117.265 303.346 118.388 301.166C114.966 300.773 110.508 303.183 105.951 302.854L105.7 302.073C107.76 299.502 110.646 298.902 111.514 296.776C110.608 295.134 107.618 293.793 105.846 292.788C102.332 286.517 100.39 280.802 93.8778 278.583L93.3939 278.649C75.2783 278.924 85.9427 266.751 90.1215 258.702C86.5293 260.924 85.6563 261.783 82.6173 264.646C82.0641 262.439 81.6385 260.681 81.25 258.444C82.6637 255.563 84.0398 258.615 88.0085 254.344C89.0317 253.915 91.201 253.834 92.4232 253.715Z" fill="#FCFBFC"/>
<path d="M93.3868 278.649C91.9943 275.756 89.5687 274.146 88.9375 271.622L89.696 270.844C94.2855 271.241 95.3031 274.756 93.8707 278.583L93.3868 278.649Z" fill="#4D5156"/>
<path d="M55.2988 492.798C56.4797 489.673 58.9222 482.985 63.0851 484.746C63.3327 486.317 63.078 486.419 62.419 487.937C62.0858 488.712 61.4814 489.888 61.4109 490.659C63.0863 494.532 59.4866 502.073 58.0451 506.198C54.8473 515.632 51.4161 524.983 47.7548 534.246C47.5907 534.651 47.4266 535.054 47.2624 535.456C48.1666 536.507 48.9975 537.495 49.9761 538.483C48.6634 542.437 47.4361 546.419 46.2953 550.427L45.9241 549.778L42.4963 549.337C41.5746 552.661 40.1924 560.671 34.1422 559C32.377 558.512 32.2105 557.807 31.4688 556.341C31.6968 553.934 32.2322 553.019 34.4278 551.89C36.1787 549.066 36.1519 545.763 37.6724 541.832L37.2844 541.188C37.1702 538.607 41.2636 528.573 42.74 527.227C44.9905 520.607 47.2861 514.002 49.6268 507.415L49.4117 507.024C49.9319 501.624 50.6748 496.239 54.2814 491.898L55.2988 492.798Z" fill="black"/>
<path d="M37.6688 541.832C38.9535 538.737 40.4035 534.437 42.5206 532.037C44.3169 531.888 43.4627 531.715 45.111 532.8C45.9791 537.49 39.9628 553.381 35.8079 556.007L34.6059 555.681C33.9818 554.224 34.2501 553.498 34.4242 551.89C36.1752 549.066 36.1484 545.763 37.6688 541.832Z" fill="#EBEBED"/>
<path d="M55.2949 492.798C56.4759 489.673 58.9183 482.985 63.0813 484.746C63.3288 486.317 63.0742 486.419 62.4151 487.937C62.082 488.712 61.4776 489.888 61.4071 490.659L61.0449 491.376C59.1708 495.166 57.2371 501.941 55.5756 504.254C53.3086 504.402 54.4234 504.563 52.1808 503.417C51.1449 499.88 53.5934 496.32 55.2949 492.798Z" fill="#FCFBFC"/>
<path d="M49.629 507.415C52.4385 507.193 51.2829 506.832 53.4046 507.91C53.9571 510.539 48.6971 526.89 45.6849 528.293C44.0837 527.993 44.1054 528.076 42.7422 527.227C44.9927 520.607 47.2883 514.003 49.629 507.415Z" fill="#EBEBED"/>
<path d="M47.2583 535.456C48.1624 536.507 48.9934 537.495 49.9719 538.483C48.6593 542.437 47.4319 546.419 46.2912 550.427L45.92 549.778L42.4922 549.337C43.9966 546.088 46.0656 539.1 47.2583 535.456Z" fill="#016EC1"/>
<path d="M165.437 441.244C163.645 437.942 158.684 431.442 162.14 427.756C164.772 427.715 166.415 429.678 169.23 430.834L170.169 431.21C170.65 429.737 170.806 429.807 171.745 428.476L176.45 431.9C181.796 435.515 182.803 437.998 185.979 443.359L185.14 444.495C187.064 447.732 189.313 455.263 189.852 458.985C186.089 458.202 182.313 457.485 178.525 456.841C175.881 456.932 175.679 457.01 173.255 456.127C169.998 454.515 156.257 437.783 153.898 434.232C157.464 436.09 161.935 439.056 165.437 441.244Z" fill="#FCFBFC"/>
<path d="M170.172 431.21C170.652 429.737 170.808 429.807 171.747 428.476L176.452 431.9C181.799 435.515 182.806 437.998 185.982 443.359L185.143 444.495L183.296 443.527C182.157 444.056 181.418 444.202 180.689 445.054L180.389 446.5C178.601 448.566 173.679 449.854 171.184 447.688C170.733 445.561 170.635 446.568 171.494 444.563C173.369 443.815 172.969 444.139 175.43 444.846C177.523 442.19 169.728 438.756 170.843 435.093C171.074 434.332 170.421 432.037 170.172 431.21Z" fill="black"/>
<path d="M180.688 445.054C177.854 441.917 175.808 440.039 174.352 436.012L174.913 435.629C178.937 437.429 179.13 439.79 182.793 443.083L183.295 443.527C182.156 444.056 181.417 444.202 180.688 445.054Z" fill="#EBEBED"/>
<path d="M173.254 456.127L173.059 453.332C175.512 450.793 181.793 451.863 185.676 451.439C183.276 452.963 180.1 454.632 178.524 456.841C175.881 456.932 175.678 457.01 173.254 456.127Z" fill="#4D5156"/>
<path d="M76.0977 525.151C76.4806 523.524 76.9001 521.91 77.3559 520.302C78.4835 516.222 79.6881 511.417 83.4062 509.317C83.2401 513.593 80.6982 520.039 79.1386 524.212C89.685 546.363 99.453 543.49 120.884 548.529C123.576 549.161 124.122 552.024 124.084 554.385C116.279 550.466 102.271 549.339 93.303 548.2C86.5798 538.493 80.9416 541.561 76.0977 525.151Z" fill="#FCFBFC"/>
<path d="M62.4144 487.937C63.5083 488.032 64.7459 487.88 65.2912 488.568C66.9968 490.719 66.2646 495.976 65.6839 498.554C62.4183 513.051 56.6907 525.446 49.9715 538.483C48.9929 537.495 48.162 536.507 47.2578 535.456C47.422 535.054 47.5861 534.651 47.7503 534.246C51.4115 524.983 54.8427 515.632 58.0405 506.197C59.482 502.073 63.0817 494.532 61.4063 490.659C61.4768 489.888 62.0812 488.712 62.4144 487.937Z" fill="#0078BF"/>
<path d="M61.2871 229.493L64.7154 229.398C66.4037 232.019 66.2223 234.356 66.462 237.537C69.9235 238.959 76.6318 241.807 80.2537 242.546C78.1769 243.58 77.2347 243.519 76.6567 245.112L77.4845 246C77.7545 247.454 77.5374 248.154 78.4671 248.563C83.1871 250.632 87.5381 251.5 92.4179 253.715C91.1957 253.834 89.0264 253.915 88.0033 254.344C82.6498 251.585 75.5496 254.907 72.0991 249.415C72.6371 245.266 73.825 248.01 74.7318 244.676C65.8076 238.173 63.2269 248.102 61.264 233.198C60.7174 231.798 61.0401 231.012 61.2871 229.493Z" fill="#EBEBED"/>
<path d="M128.525 308.1L131.031 316.037L129.562 322.705C119.414 329.812 121.443 336.576 114.898 345.659C114.539 346.156 111.816 347.015 111.081 347.249L110.067 347.056C109.8 342.246 120.733 326.1 125.331 322.112C126.1 319.361 127.412 316.498 126.301 314.093C128.813 311.793 128.391 311.1 128.525 308.1Z" fill="#CED1D4"/>
<path d="M154.156 412.873C155.337 409.634 155.081 408.871 158.425 407.912C161.407 412.007 168.293 418.559 169.686 422.69L170.31 427.207C161.359 424.098 162.088 419.307 154.156 412.873Z" fill="#6E7374"/>
<path d="M103.978 207.72L103.831 207.01C103.284 204.266 102.859 201.263 102.841 198.459C102.767 186.634 99.8814 176.944 106.899 166.454C108.045 168.468 107.262 167.81 109.05 168.783C104.711 171.881 106.163 192 105.498 197.688C105.026 201.722 104.931 203.42 103.978 207.72Z" fill="#8F9093"/>
<path d="M189.526 477.198L190.982 475.937L192.916 478.959C193.763 481.059 194.126 481.327 195.585 482.976C192.853 487.237 195.565 497.451 194.238 504.868C193.855 501.422 195.031 498.859 192.05 496.844L190.831 497.246L190.209 493.312C189.399 491.246 190.343 490.139 188.141 486C189.136 482.759 189.765 481.259 189.68 477.795L189.526 477.198Z" fill="#EBEBED"/>
<path d="M189.526 477.198L190.982 475.937L192.916 478.959C191.07 484.354 190.538 487.522 190.209 493.312C189.399 491.246 190.343 490.139 188.141 486C189.136 482.759 189.765 481.259 189.68 477.795L189.526 477.198Z" fill="#353B3B"/>
<path d="M110.08 169.566C111.959 172.202 111.206 171.912 113.791 173.149C111.372 178.429 116.622 190.034 112.022 193.6C109.146 190.1 109.737 174.239 110.08 169.566Z" fill="#8F9093"/>
<path d="M134.646 289.798C135.144 291.763 135.196 292.473 135.36 294.429C136.172 297.895 136.746 299.937 136.748 303.573C135.786 306.163 134.569 309.154 134.043 311.824C133.278 307.541 130.777 295.702 131.795 292.061C132.954 291.324 133.666 290.761 134.646 289.798Z" fill="#CED1D4"/>
<path d="M136.758 303.573L135.618 303.037C134.15 300.38 133.126 296.79 135.37 294.429C136.181 297.895 136.756 299.937 136.758 303.573Z" fill="#6E7374"/>
<path d="M154.157 412.873C152.496 412.515 152.226 412.649 150.989 411.568C150.665 407.09 148.84 405.576 148.828 403.095C152.828 402.578 153.15 407.022 156.684 403.566C157.828 404.771 158.472 406.222 158.426 407.912C155.082 408.871 155.338 409.634 154.157 412.873Z" fill="#8F9093"/>
<path d="M80.2533 242.546C83.207 243.298 88.5899 242.868 90.1575 243.832C88.6038 250.244 81.7631 247.244 77.484 246L76.6562 245.112C77.2343 243.52 78.1765 243.58 80.2533 242.546Z" fill="#FCFBFC"/>
<path d="M185.395 522.993L186.326 523.407L188.38 522.107C190.312 525.854 192.107 528.246 191.587 532.424C188.626 533.222 189.004 533.649 186.746 532.741C185.492 530.778 185.653 525.688 185.395 522.993Z" fill="#EBEBED"/>
<path d="M189.677 477.795C189.763 481.259 189.133 482.759 188.138 486C186.316 489.424 185.187 492.239 181.814 494.3C181.297 491.58 187.943 480.539 189.677 477.795Z" fill="#CED1D4"/>
<path d="M68.1166 220.034L70.8937 218.354L71.6537 218.639C71.2247 221.488 66.6081 226.998 64.7174 229.398L61.2891 229.493C64.2149 225.205 64.1998 223.902 68.1166 220.034Z" fill="#DBEBF1"/>
<path d="M185.398 522.993C183.888 518.712 179.322 516.112 180.09 512.488L181.298 512.481C183.605 513.705 183.481 513.634 184.727 515.963L188.383 522.107L186.329 523.407L185.398 522.993Z" fill="#DBEBF1"/>
<path d="M190.829 497.246L192.048 496.844C195.029 498.859 193.853 501.422 194.236 504.868C191.558 504.334 191.919 504.815 190.18 503.237C189.502 501.002 190.202 499.539 190.829 497.246Z" fill="#FCFBFC"/>
<path d="M125.778 241.32C125.717 243.841 125.003 247.761 127.458 249.007L127.565 249.505C126.81 252.415 127.229 254.663 125.429 256.941C123.85 254.629 125.228 244.373 125.778 241.32Z" fill="#B3B2B4"/>
<path d="M99.8878 374.51C102.152 375.2 101.284 374.585 102.74 376.176C102.781 382.315 96.8412 390.368 95.1739 396.334C92.5637 405.676 87.5239 415.227 84.691 424.154C80.8246 436.337 78.6317 445.795 72.8571 457.656C66.2951 453.2 78.8251 437.278 78.5229 431.993C78.0183 423.171 83.2444 421.134 85.8242 414.271C88.5022 407.146 90.9293 399.756 93.7695 392.651C96.5422 383.346 95.2946 383.868 99.8878 374.51Z" fill="#EBEBED"/>
<path d="M109.083 350.793C111.204 351.361 110.551 350.744 111.521 352.224C111.483 356.971 106.773 367.6 104.067 371.539C103.308 371.468 102.742 371.254 101.994 371.042C101.149 367.073 107.233 354.812 109.083 350.793Z" fill="#CED1D4"/>
<path d="M69.25 461.239L70.7822 461.998C72.7297 465.671 66.7541 477.39 63.838 480.066L62.4368 479.288C62.027 475.993 67.2648 464.217 69.25 461.239Z" fill="#FCFBFC"/>
<path d="M119.937 141.268C121.471 138.646 123.102 138.576 123.897 134.639C121.935 129.812 121.909 129.154 123.657 124.563C124.632 122.007 116.608 111.007 115.466 108.039C107.05 86.1683 128.886 57.8341 152.554 68.1219C163.822 70.1 175.336 79.7756 176.754 91.5025L178.985 94.222L179.612 95.4732L178.995 96.7147L177.551 97.122C177.334 98.3659 177.136 99.5732 177.405 100.893C178.024 103.91 188.266 116.051 182.941 117.729C181.802 118.144 180.693 118.432 179.5 118.639C178.666 119.485 177.566 120.39 177.985 121.741C180.278 129.117 179.607 130.312 176.078 136.978C172.763 137.578 161.961 143.637 160.456 145.307C158.7 146.659 153.197 150.373 152.168 151.485C149.302 150.693 147.39 150.844 144.591 148.998C143.155 148.051 142.207 148.898 140.806 149.59C139.195 148.371 136.527 145.685 135.18 145.588C134.754 147.602 134.779 147.832 134.763 149.805L133.656 150.8C131.679 149.883 131.139 149.139 129.631 149.651C129.775 151.624 129.883 151.89 130.389 153.729L129.513 153.912C127.148 152.207 126.24 150.868 125.532 148.159C126.893 147.766 126.467 147.946 127.742 147.171L126.367 146.244C123.891 144.024 122.705 143.117 119.937 141.268Z" fill="#2B2A2A"/>
<path d="M152.555 68.1219C163.823 70.1 175.338 79.7756 176.755 91.5025C176.364 91.7781 175.369 92.2415 174.903 92.478C172.772 92.2829 173.628 92.7219 172.218 91.1829C169.708 88.5293 164.886 85.5854 161.789 83.6903C158.806 76.6317 153.696 73.4951 152.555 68.1219Z" fill="#FCFBFC"/>
<path d="M170.294 127.654C167.582 126.907 165.94 126.883 165.565 123.866C168.521 118.959 170.065 117.312 164.567 114.615C164.36 112.807 168.009 107.788 169.267 105.812C168.428 105.007 167.967 104.515 167.194 103.666L167.396 102.522C169.562 100.102 171.499 100.954 173.852 98.8634L173.94 100.695C173.255 101.073 171.882 101.759 172.052 102.646C173.004 107.593 169.706 122.624 171.148 126.073L170.294 127.654Z" fill="#6E7374"/>
<path d="M173.855 98.8634C175.336 97.6683 175.699 97.7586 177.553 97.122C177.336 98.3659 177.138 99.5732 177.407 100.893C178.026 103.91 188.268 116.051 182.943 117.729C180.404 111.571 174.558 103.663 173.943 100.695L173.855 98.8634Z" fill="#CED1D4"/>
<path d="M172.221 91.1829C173.631 92.7219 172.775 92.2829 174.907 92.4781C175.373 92.2415 176.368 91.7781 176.758 91.5025L178.99 94.222C176.046 96.5488 167.48 99.239 163.531 100.741C166.182 97.1488 169.368 94.9707 172.221 91.1829Z" fill="#EBEBED"/>
<path d="M171.147 126.073C172.449 128.022 173.693 129.307 173.683 131.571C172.456 133.705 170.539 135.312 168.234 133.349C168.503 131.051 169.781 130.588 170.293 127.654L171.147 126.073Z" fill="#353B3B"/>
<path d="M131.546 113.2C135.102 114.41 136.69 116.895 136.699 120.524C133.393 120.066 131.369 116.388 131.546 113.2Z" fill="#4D5156"/>
<path d="M454.383 150.01C465.61 150.166 485.051 148.224 494.307 153.551C499.646 156.661 503.449 161.854 504.805 167.883C508.317 183.934 496.671 191.941 482.6 194.337C493.834 205.134 501.793 220.256 513.978 233.176L497.019 232.922C494.219 232.532 473.954 200.483 469.049 195.602C469.21 207.478 468.978 221.22 469.636 232.912L454.446 232.939C454.861 205.298 454.839 177.651 454.383 150.01Z" fill="#FCFBFC"/>
<path d="M469.321 156.717C475.208 156.59 479.606 156.229 484.762 159.966C488.157 162.429 490.43 166.144 491.077 170.288C491.982 176.022 489.95 180.859 486.596 185.349C480.799 190.276 476.501 189.727 469.221 189.624C469.125 178.656 469.16 167.685 469.321 156.717Z" fill="#0078BF"/>
<path d="M363.089 270.707C375.694 270.637 395.506 268.661 405.367 275.88C410.121 279.354 413.219 284.644 413.926 290.49C414.611 295.844 413.07 301.246 409.66 305.434C404.533 311.849 399.345 313.059 391.884 313.905C396.38 321.571 416.453 347.151 422.623 352.939C416.321 353.137 410.609 353.08 404.321 352.971C395.799 341.363 384.831 326.619 377.619 314.534C377.721 327.024 377.726 340.683 378.416 353.083L363.062 353.1C363.85 327.029 363.633 296.798 363.089 270.707Z" fill="#FCFBFC"/>
<path d="M378.093 276.785C384.281 276.822 388.903 276.617 394.071 280.839C397.425 283.585 399.54 287.561 399.945 291.878C400.486 297.527 398.432 301.217 395.14 305.385C389.293 310.522 385.591 309.927 378.084 309.91C377.42 300.512 377.732 286.373 378.093 276.785Z" fill="#0078BF"/>
<path d="M291.301 149.966L306.452 149.956C306.018 161.822 306.093 174.985 306.208 186.812C316.623 187.329 331.059 186.995 341.432 186.712C341.489 174.471 341.35 162.229 341.013 149.993C346.072 150.017 351.133 149.988 356.191 149.907C355.547 156.861 355.767 167.098 355.762 174.241L355.779 213.161C355.786 217.073 356.172 229.678 355.82 232.629L354.64 232.978L341.069 232.966C341.442 219.82 341.503 206.668 341.247 193.52C334.733 193.946 312.191 194.083 305.991 193.51C305.874 206.398 306.201 220.095 306.401 232.998L291.518 232.917C291.691 228.82 291.713 224.093 291.603 219.961C290.989 196.978 292.696 172.81 291.301 149.966Z" fill="#FCFBFC"/>
<path d="M588.025 270.715C592.857 270.763 597.796 270.695 602.637 270.683C601.674 294.502 602.684 318.776 602.374 342.629C602.337 345.456 603.052 350.222 602.303 352.732L600.981 353.039L588.076 353.122C588.459 339.898 588.557 326.666 588.374 313.439C578.166 314.207 563.298 313.715 552.759 313.602C552.644 325.6 552.462 341.295 553.23 353.071L538.566 353.005C539.72 327.759 538.984 296.176 538.625 270.688C543.508 270.71 548.388 270.688 553.271 270.629C552.63 282.602 552.769 295.227 552.715 307.263L588.169 307.283C588.415 295.093 588.366 282.9 588.025 270.715Z" fill="#FCFBFC"/>
<path d="M398.065 150.022C401.76 150.049 405.675 149.924 409.39 149.868C416.216 168.012 423.243 186.129 429.429 204.5C432.699 214.215 436.104 223.688 440.231 233.078C435.085 232.924 429.763 232.915 424.597 232.834C422.58 225.856 418.324 214.502 415.592 207.661C414.114 206.595 414.002 207.029 411.668 207.163C402.875 207.237 394.148 207.366 385.358 207.078C382.319 215.5 379.521 224.783 376.907 233.359C373.997 233.02 371.704 233.21 368.797 233.332C377.57 211.915 383.919 190.083 391.963 168.405C394.131 162.561 396.648 156.029 398.065 150.022Z" fill="#FCFBFC"/>
<path d="M399.519 165.507C399.912 165.754 400.305 166.002 400.697 166.251C405.029 176.727 408.058 190.063 413.231 200.051L402.197 200.337C397.234 200.388 392.8 200.022 387.785 200.566C391.146 190.593 397.183 175.151 399.519 165.507Z" fill="#0078BF"/>
<path d="M735.966 270.563C739.015 270.815 744.288 270.671 747.507 270.678C750.01 279.673 755.203 292.49 758.537 301.598C764.178 317.007 770.754 338.702 778.068 353.037L761.776 353.059C760.5 347.439 755.627 333.481 752.732 328.041C752.293 327.222 750.988 327.456 749.764 327.395C740.734 327.459 731.705 327.454 722.676 327.376C720.798 334.898 716.468 344.683 714.2 353.076L706.156 353.095C711.371 342.102 714.551 330.707 718.617 319.261C724.366 303.078 730.595 286.859 735.966 270.563Z" fill="#FCFBFC"/>
<path d="M737.549 286.405C738.771 287.715 748.586 316.22 750.822 321.176L740.005 321.149L725.047 321.132C728.84 312.173 734.198 293.017 737.549 286.405Z" fill="#0078BF"/>
<path d="M637.472 270.48C639.572 271.173 647.172 283.38 649.031 286.017L673.08 319.727C677.626 326.049 681.958 331.237 685.682 338.11C684.621 328.815 684.877 316.578 684.889 307.078C684.989 294.805 684.799 282.529 684.321 270.266C686.541 270.463 689.004 270.507 691.246 270.595C690.833 285.895 691.077 301.888 691.033 317.246C691.002 328.327 690.687 342.2 691.402 353.095C687.711 353.2 684.002 353.112 680.309 353.063C674.858 347.115 667.324 335.42 662.365 328.337C652.814 314.693 640.985 299.71 632.555 285.51C633.87 307.751 632.248 331.041 633.416 353.263C630.926 353.11 628.158 353.12 625.641 353.071C626.67 327.78 625.945 296.22 625.743 270.727C629.741 270.763 633.477 270.632 637.472 270.48Z" fill="#FCFBFC"/>
<path d="M334.261 269.927C337.934 271.083 340.788 270.251 344.585 269.654C334.714 280.278 325.795 293.973 315.209 305.863C327.119 318.227 337.861 339.337 351.239 352.971L333.363 353.149C327.627 342.695 312.985 325.598 305.5 313.776L305.817 324.1C306.312 333.546 306.129 343.412 306.548 353.034L291.2 352.949C291.97 346.932 291.814 324.739 291.663 317.524C291.38 304 292.395 283.495 291.188 270.732L306.505 270.617C305.861 283.327 306.746 294.632 304.958 307.461C311.556 299.849 329.192 277.788 334.261 269.927Z" fill="#FCFBFC"/>
<path d="M493.734 269.69C502.144 268.922 508.541 271.146 516.471 273.483C516.027 276.544 515.293 280.046 514.715 283.127C505.805 278.405 488.007 268.59 482.595 288.11C481.468 294.798 493.49 301.383 498.183 303.063C530.215 314.539 529.044 351.959 492.095 354.322C482.795 353.99 477.539 351.827 468.961 348.173C470.829 343.829 471.327 341.761 472.373 337.061C480.459 345.537 494.668 352.951 504.485 341.139C512.429 331.581 502.719 320.932 493.59 317.485C490.054 316.151 484.695 312.649 481.244 310.7C469.393 303.095 466.451 290.693 474.729 278.985C479.268 272.566 486.461 270.873 493.734 269.69Z" fill="#FCFBFC"/>
<path d="M526.84 149.985L552.413 150.027C556.869 150.017 564.837 149.695 568.998 150.402C570.098 152.317 569.874 154.746 569.918 157.032C560.664 156.605 550.801 156.798 541.486 156.832L541.347 187.729L570.172 187.434C569.976 189.676 569.928 192.066 569.84 194.324L541.337 194.068L541.411 198.629L541.547 225.585L569.957 225.537L569.754 232.968L526.857 232.971C527.481 206.407 527.259 176.605 526.84 149.985Z" fill="#FCFBFC"/>
<path d="M388.557 387.385C392.552 387.412 397.257 388.249 400.764 390.163C405.862 392.995 409.547 397.827 410.93 403.493C414.737 418.554 408.001 430.529 392.513 433.654C380.008 433.759 370.401 429.263 368.059 415.607C365.489 400.627 373.159 389.41 388.557 387.385Z" fill="#FCFBFC"/>
<path d="M386.933 391.578C393.962 391.249 400.603 393.72 402.708 400.815C405.989 411.881 405.15 425.424 392.679 429.451C374.923 431.544 373.193 411 378.257 398.734C379.957 394.615 382.854 392.878 386.933 391.578Z" fill="#0078BF"/>
<path d="M436.07 270.719L451.209 270.649C450.512 277.705 450.885 291.768 450.89 299.034L450.951 353.002C447.639 353.298 439.695 353.034 436.031 353.024C437.053 328.066 436.458 295.924 436.07 270.719Z" fill="#FCFBFC"/>
<path d="M557.156 388.373C559.725 388.256 560.359 388.142 562.825 388.661C566.498 391.237 573.895 419.2 575.456 424.968C579.137 417.11 581.037 407.949 584.347 399.922C586.176 395.485 587.517 385.798 594.168 389.237C596.015 393.183 600.11 426.8 600.912 433C598.82 432.983 595.576 433.234 594.076 432.078C592.395 426.259 590.788 410.961 590.088 404.417C589.881 402.437 590.176 402.163 589.183 400.729C584.659 403.11 579.915 434.29 573.515 433.244C568.927 429.151 561.854 405.415 559.432 398.307C558.3 405.434 555.515 426.251 553.593 432.115C551.959 433.424 552.844 433.222 551.017 433.207C549.129 429.693 556.446 394.871 557.156 388.373Z" fill="#FCFBFC"/>
<path d="M329.218 387.676C330.757 387.973 331.081 388.105 332.567 388.568C334.099 391.041 339.121 427.961 339.513 433.037L332.713 432.778C331.011 422.124 329.628 411.424 328.567 400.688L327.979 400.244C323.469 402.932 319.952 430.676 312.764 432.9C304.977 430.515 303.106 403.8 297.45 400.632C296.206 409.981 294.596 421.959 292.635 431.324C292.374 432.568 290.945 433.063 289.947 433.41L289.23 432.554C289.084 421.985 293.277 407.029 294.574 396.283C294.947 393.195 296.635 387.229 300.669 388.117C305.289 392.063 311.825 417.227 313.845 424.507C318.738 415.417 323.672 392.949 329.218 387.676Z" fill="#FCFBFC"/>
<path d="M622.801 85.4171C633.428 85.078 646.508 83.9317 648.791 98.5024C649.715 104.398 647.115 109.185 643.262 113.502C637.44 118.485 630.615 117.359 623.298 117.078C622.835 106.9 622.925 95.6756 622.801 85.4171Z" fill="#FCFBFC"/>
<path d="M629.219 88.3707C632 88.6195 635.483 88.7805 637.919 90.2097C640.344 91.6536 642.095 94.0049 642.785 96.7439C643.897 101.027 642.368 107.324 640.19 111.141C636.215 113.837 633.924 113.444 629.117 113.563C629.007 105.881 628.717 95.8732 629.219 88.3707Z" fill="#016EC1"/>
<path d="M685.711 387.585C687.087 387.749 690.275 388.256 691.189 389.149C701.184 398.9 708.996 413.378 717.762 424.08C717.404 418.988 716.121 391.124 717.95 388.319L719.433 388.1L720.353 388.937C721.853 394.178 720.638 426.78 720.345 433.293C711.601 433.288 694.57 404.956 689.182 397.212C689.328 407.298 689.431 417.876 689.316 427.993C689.294 429.795 688.343 432.129 686.848 433.346L686.057 432.866C685.096 428.076 685.492 394.334 685.711 387.585Z" fill="#FCFBFC"/>
<path d="M486.805 85.4195C491.607 85.322 501.927 84.1439 504.846 88.8244C508.278 94.3293 507.159 96.578 501.527 99.2219C503.498 102.61 507.276 104.38 507.376 108.966C507.451 112.502 501.742 115.873 499.049 117.222C496.661 117.198 493.383 117.288 491.117 116.856C489.459 116.9 488.585 117.117 487.224 116.202C486.483 112.82 486.793 90.3829 486.805 85.4195Z" fill="#FCFBFC"/>
<path d="M492.877 100.995C507.033 102.983 501.14 115.044 493.557 113.61C492.316 112.622 492.633 113.117 492.074 111.724C492.528 107.702 491.84 105.395 492.877 100.995Z" fill="#016EC1"/>
<path d="M492.552 98.9414C492.216 94.6317 491.413 92.2756 493.933 88.9024C497.699 87.1951 499.648 89.8805 501.723 92.7415C500.67 95.1732 500.223 97.0658 498.067 98.4317C495.623 98.9658 495.091 98.9414 492.552 98.9414Z" fill="#016EC1"/>
<path d="M631.277 388.568C635.765 388.451 652.607 386.966 654.894 390.261C652.024 392.939 643.277 392.3 638.994 392.368C639.226 397.271 639.138 402.873 639.175 407.832C639.472 409.627 639.902 410.619 639.419 412.212L639.06 412.829C639.121 418.085 639.231 423.407 639.226 428.658C643.348 428.58 651.494 428.044 654.724 430.305L654.602 431.112C650.126 433.902 636.433 433.539 631.314 432.558C631.458 417.895 631.446 403.232 631.277 388.568Z" fill="#FCFBFC"/>
<path d="M631.316 432.559C645.326 430.617 635.029 422.522 639.063 412.829C639.124 418.085 639.233 423.407 639.229 428.659C643.351 428.58 651.497 428.044 654.726 430.305L654.604 431.112C650.129 433.902 636.436 433.539 631.316 432.559Z" fill="#EBEBED"/>
<path d="M499.008 388.542C503.474 388.344 520.147 387.076 523.013 389.371L522.998 390.554C519.993 393.232 511.232 392.249 506.488 392.242C506.659 397.537 506.571 402.515 506.479 407.798C506.703 409.288 506.964 410.581 506.991 412.088C505.988 415.766 506.579 424.403 506.74 428.61C511.061 428.698 519.074 427.561 522.203 429.79C522.757 431.632 522.835 430.785 522.157 432.427C517.203 433.866 504.642 432.956 499.032 432.732C499.13 418.003 499.12 403.271 499.008 388.542Z" fill="#FCFBFC"/>
<path d="M311.338 85.3683C314.497 85.3195 320.226 84.8707 322.98 85.8365C336.96 90.7365 333.921 97.9902 322.292 102.017C324.794 104.441 333.904 113.793 331.802 117.051C329.946 117.468 329.248 116.959 327.475 116.229C323.65 111.971 320.007 106.049 316.824 101.178C316.741 105.968 319.365 114.498 314.96 117.049C312.726 116.829 313.531 117.329 312.131 116.083C311.126 109.605 311.358 92.6585 311.338 85.3683Z" fill="#FCFBFC"/>
<path d="M317.489 88.039C324.284 88.839 327.699 91.3732 324.338 98.4171C315.026 104.032 317.087 93.5756 317.489 88.039Z" fill="#016EC1"/>
<path d="M434.37 85.4366C440.385 85.2878 451.812 84.2488 453.843 91.3317C455.641 97.5878 449.834 100.529 445.412 101.98C449.131 105.963 453.59 110.722 454.126 116.281L453.587 117.256C448.836 116.8 442.17 105.22 439.265 100.971C439.568 105.766 441.904 113.427 438.275 116.895C435.96 117.166 436.917 117.461 435.212 116.427C433.802 112.883 434.568 91.4147 434.37 85.4366Z" fill="#FCFBFC"/>
<path d="M440.735 88.0146C447.705 88.7756 451.662 92.0805 446.754 98.8463C438.137 104.141 439.291 92.9951 440.735 88.0146Z" fill="#016EC1"/>
<path d="M748.268 388.756C754.854 388.141 772.698 388.039 778.854 388.783C780.205 389.912 779.751 389.19 780.01 391.158L779 392.127C775.961 393.061 770.678 392.68 767.263 392.61L767.31 422.951L767.322 432.888C764.824 432.917 762.937 433.173 760.649 432.232C759.761 427.051 760.278 398.832 760.49 392.619C756.971 392.6 749.271 392.946 746.581 390.912L746.578 389.812L748.268 388.756Z" fill="#FCFBFC"/>
<path d="M574.081 85.4415C580.02 85.3488 585.808 84.3829 591.201 87.6366C595.449 90.2 597.467 95.1561 593.325 99.0951C589.369 102.856 585.359 103.134 580.201 103.171C579.932 107.188 581.332 114.951 578.006 117.334C571.613 115.663 574.008 91.7976 574.081 85.4415Z" fill="#FCFBFC"/>
<path d="M580.424 88.122C587.544 88.7244 592.729 91.6878 587.588 99.1927C584.163 100.29 583.024 101.373 580.378 98.7951C579.202 95.6097 580.007 91.5927 580.424 88.122Z" fill="#016EC1"/>
<path d="M415.995 103.356C416.129 106.668 417.451 115.334 414.319 116.949C411.963 116.863 411.851 117.273 410.331 116.1C409.717 110.983 409.91 91.422 410.234 86.1829C411.612 85.1537 414.071 85.3659 415.936 85.3146C427.195 85.3439 429.439 85.878 430.797 97.3098C425.317 102.754 423.566 102.937 415.995 103.356Z" fill="#FCFBFC"/>
<path d="M415.995 103.356C416.129 106.668 417.451 115.334 414.319 116.949C411.963 116.863 411.851 117.273 410.331 116.1C409.717 110.983 409.91 91.422 410.234 86.1829C411.612 85.1537 414.071 85.3659 415.936 85.3146L415.48 87.178L416.153 88.1878C415.983 91.8268 415.1 97.5073 417.188 100.161L418.471 100.656L415.592 100.968L415.11 101.759L415.995 103.356Z" fill="#EBEBED"/>
<path d="M416.155 88.1878C428.472 88.7122 428.914 98.4049 418.472 100.656L417.189 100.161C415.101 97.5073 415.984 91.8268 416.155 88.1878Z" fill="#016EC1"/>
<path d="M465.543 90.9268C466.447 88.5073 466.582 87.3049 468.567 85.8854C469.83 85.7512 470.918 85.4976 471.896 86.8268C475.204 91.3146 481.506 111.149 482.484 116.002C481.272 117.241 478.923 117.054 477.369 116.481C476.143 114.517 475.367 109.271 474.862 106.746C471.694 106.773 466.435 106.68 463.43 106.985C459.155 112.385 463.064 118.066 453.594 117.256L454.133 116.281C457.447 114.098 463.289 96.1561 465.543 90.9268Z" fill="#FCFBFC"/>
<path d="M465.543 90.9268C467.038 93.0683 466.091 92.3171 468.45 93.3146C467.306 95.0976 464.589 102.022 464.84 103.917C463.567 105.012 463.233 105.095 461.743 105.871L461.696 106.576L463.43 106.985C459.155 112.385 463.064 118.066 453.594 117.256L454.133 116.28C457.447 114.098 463.289 96.1561 465.543 90.9268Z" fill="#DBEBF1"/>
<path d="M468.442 93.3146C471.467 94.2781 471.108 99.3463 474.147 103.271C471.328 103.461 467.572 103.612 464.833 103.917C464.581 102.022 467.299 95.0976 468.442 93.3146Z" fill="#016EC1"/>
<path d="M604.7 85.2049L607.849 85.4976C610.217 87.2927 618.72 112.385 619.466 116.093L618.81 116.927C609.9 117.8 615.31 109.22 609.298 106.783C606.447 106.717 602.461 106.339 599.903 107.22C596.81 110.232 597.652 115.432 594.083 117.034L593.332 116.417C593.6 110.515 601.32 90.2781 604.7 85.2049Z" fill="#FCFBFC"/>
<path d="M604.132 92.7829C604.959 93.0171 605.383 93.3073 606.159 93.7073C607.064 95.7537 609.31 100.622 609.515 102.705L608.086 103.944L600.352 102.951C601.861 99.6025 602.937 96.2512 604.132 92.7829Z" fill="#016EC1"/>
<path d="M434.891 388.356L443.593 388.407C443.93 389.734 446.544 397.668 447.066 398.632C449.266 402.705 453.335 421.998 455.391 423.607L459.22 424.032L459.764 424.988C458.642 428.605 457.866 433.181 453.405 433.373C452.154 432.866 451.227 432.217 450.659 430.949C444.532 417.224 440.866 402.227 434.891 388.356Z" fill="#FCFBFC"/>
<path d="M375.539 106.437C372.088 109.222 373.069 114.254 368.737 117.034C367.249 113.488 377.469 87.0488 380.805 84.8634L381.91 85.1341C384.564 90.6171 393.437 110.798 393.173 116.034L392.369 117.198C386.783 117.034 386.583 111.159 384.834 106.671C380.903 106.856 379.505 106.898 375.539 106.437Z" fill="#FCFBFC"/>
<path d="M380.083 90.2366C381.088 94.3561 381.72 98.7634 383.749 102.432C384.086 103.778 384.437 105.366 384.827 106.671C380.896 106.856 379.498 106.898 375.532 106.437L375.469 103.107C377.169 98.9415 378.618 94.5049 380.083 90.2366Z" fill="#016EC1"/>
<path d="M383.749 102.432C384.086 103.778 384.437 105.366 384.827 106.671C380.896 106.856 379.498 106.898 375.532 106.437L375.469 103.107C378.435 103.854 381.135 104.171 383.749 102.432Z" fill="#DBEBF1"/>
<path d="M658.391 91.3244C659.465 88.9439 659.889 87.2537 662.03 85.861C662.901 85.761 663.374 85.4781 664.138 86.0464C665.913 87.3634 675.06 111.69 675.955 115.556L675.521 116.773C667.901 119.437 669.562 110.593 667.126 107.7C664.631 106.576 662.079 106.698 659.294 106.544L660.701 103.529L657.299 102.898C657.082 102.732 654.648 101.641 654.23 101.449C655.589 97.2244 656.44 95.339 658.391 91.3244Z" fill="#FCFBFC"/>
<path d="M658.391 91.3244C659.852 92.2463 660.191 92.6512 661.899 92.8537L663.257 93.5829L663.377 94.1366C664.143 97.561 665.423 98.8463 665.291 102.42C663.84 103.737 663.062 103.634 660.701 103.529L657.299 102.898C657.082 102.732 654.648 101.641 654.23 101.449C655.589 97.2244 656.44 95.339 658.391 91.3244Z" fill="#016EC1"/>
<path d="M658.391 91.3244C659.852 92.2463 660.191 92.6512 661.899 92.8537C659.643 96.2903 658.872 99.1781 657.299 102.898C657.082 102.732 654.648 101.641 654.23 101.449C655.589 97.2244 656.44 95.339 658.391 91.3244Z" fill="#DBEBF1"/>
<path d="M696.302 84.8805C699.934 84.8854 702.424 84.8951 705.036 87.5951L704.59 88.3976C700.258 89.5658 695.012 86.8829 692.461 90.6342C690.292 93.4342 694.768 96.5951 697.1 97.4366C709.266 101.824 711.578 113.439 696.758 117.99C696.251 117.941 695.744 117.89 695.239 117.834C691.549 117.424 686.424 116.41 687.58 111.42C691.546 110.627 694.046 116.99 701.544 111.698C703.629 104.744 688.056 100.946 687.492 93.7341C687.041 87.961 691.453 85.6244 696.302 84.8805Z" fill="#FCFBFC"/>
<path d="M697.328 494.405L698.001 492.341C700.962 491.141 702.574 494.598 703.533 497.054C705.277 501.527 712.384 514.339 709.667 518.363C703.882 518.605 705.555 513.349 702.865 509.98L694.894 509.761C692.762 514.473 691.316 517.605 688.691 522.02C689.684 511.424 692.467 503.861 697.328 494.405Z" fill="#FCFBFC"/>
<path d="M697.328 494.405C698.489 500.532 703.487 504.754 702.865 509.981L694.894 509.761C692.762 514.473 691.316 517.605 688.691 522.02C689.684 511.424 692.467 503.861 697.328 494.405Z" fill="#DBEBF1"/>
<path d="M527.632 497.515C527.579 504.4 527.774 511.59 526.774 518.359L525.642 518.985C523.649 514.302 522.618 494.988 525.532 491.832C532.037 491.361 537.859 508.256 542.693 509.824L544.493 510.2C545.793 512.307 545.262 515.139 545.476 517.744L544.637 518.695L543.288 518.719C539.091 516.061 530.464 502.207 527.632 497.515Z" fill="#EBEBED"/>
<path d="M298.14 113.807C300.169 112.559 300.759 112.278 302.042 110.288C303.215 102.068 286.918 101.861 287.191 93.1341C287.435 85.3293 301.635 81.9171 305.388 87.7537L304.881 88.6512C298.898 89.9049 298.301 86.2756 293.364 90.2439C292.862 91.4537 292.264 92.3341 293.264 93.6634C297.193 98.8927 307.864 100.527 307.718 108.444C307.659 111.61 302.957 115.632 300.288 116.871C299.618 114.541 300.196 115.598 298.14 113.807Z" fill="#FCFBFC"/>
<path d="M296.235 491.524C300.018 491.341 304.869 491.227 307.072 494.905C305.167 497.105 284.23 491.415 291.904 509.724C294.85 516.756 298.543 516.132 304.913 513.573C305.86 513.385 305.306 513.393 306.555 513.834V515.271C301.606 522.749 289.718 518.663 286.601 510.954C285.043 507.1 285.143 502.776 286.874 498.997C288.972 494.502 291.823 493.093 296.235 491.524Z" fill="#FCFBFC"/>
<path d="M455.487 491.754C460.148 491.585 463.318 492.28 467.696 493.598C462.518 494.644 457.982 493.729 455.04 495.79C449.279 504.402 460.262 501.89 463.418 504.439L463.143 505.349C460.73 506.276 456.882 506.124 454.162 506.205C453.955 508.805 453.901 511.619 453.796 514.244C456.728 515.668 461.472 514.424 463.713 517.359C461.274 518.89 452.533 518.324 449.377 518.271C449.074 513.724 448.735 496.841 449.416 492.778C450.979 491.832 453.545 491.888 455.487 491.754Z" fill="#EBEBED"/>
<path d="M349.535 116.812C349.53 111.571 348.593 89.0585 350.193 85.8025C352.252 85.1439 352.454 85.3073 354.566 85.5122C356.674 89.1317 355.683 107.99 355.581 113.478C356.276 115.602 356.749 115.854 358.332 117.381L349.535 116.812Z" fill="#EBEBED"/>
<path d="M337.02 85.3464C339.12 85.3269 340.91 85.1025 342.422 86.1927C343.159 91.3415 342.635 110.722 342.637 116.92C340.135 117.09 338.9 117.156 337.188 115.727C336.344 109.144 336.84 92.6537 337.02 85.3464Z" fill="#FCFBFC"/>
<path d="M517.985 101.837C517.795 106.578 518.939 113.002 516.939 116.263C514.907 117.541 515.927 117.395 513.854 117.1C511.463 114.39 511.28 89.5878 514.334 85.6585C516.28 84.8488 515.305 84.9097 517.361 85.5171C518.393 90.2219 517.349 94.4268 518.344 98.9927C518.373 100.678 518.641 100.588 517.985 101.837Z" fill="#FCFBFC"/>
<path d="M531.325 98.9951C531.332 96.0293 531.046 87.9927 531.981 85.6342C534.134 85.361 534.081 85.2732 536.254 85.9805C537.747 89.8561 538 114.344 534.281 117.22C532.434 117.141 533.178 117.49 531.932 116.234C530.778 111.339 531.688 106.8 531.388 101.9L531.325 98.9951Z" fill="#FCFBFC"/>
<path d="M455.395 423.607C460.519 415.915 464.238 393.751 470.531 388.429L471.182 388.954C471.307 394.798 462.285 420.524 459.768 424.988L459.224 424.032L455.395 423.607Z" fill="#EBEBED"/>
<path d="M607.508 493.544L607.925 492.132C613.891 490.027 621.532 506.317 625.571 510.356C626.703 511.434 626.052 511.073 627.503 511.476C628.625 513.273 628.098 515.48 628.352 517.834L627.64 518.922C623.532 518.646 614.964 503.2 611.913 499.256L611.491 498.717C609.303 495.444 609.561 498.602 607.508 493.544Z" fill="#FCFBFC"/>
<path d="M371.638 505.666C371.374 510.173 372.684 516.371 368.811 519.332C368.391 519.251 367.533 519.285 367.367 518.727C365.803 513.446 363.923 495.134 368.847 491.754C370.72 491.89 369.972 491.5 371.301 492.561C371.486 496.027 371.599 499.498 371.642 502.971L371.638 505.666Z" fill="#FCFBFC"/>
<path d="M771.254 491.885C773.471 491.878 774.085 491.761 776.22 492.517C777.073 495.946 776.515 514.2 776.454 518.605C775.066 518.5 773.798 518.32 772.424 518.129C770.515 516.029 771.207 495.907 771.254 491.885Z" fill="#FCFBFC"/>
<path d="M546.831 114.571C546.377 114.01 545.47 112.844 545.148 112.273C542.494 107.568 541.792 87.3805 546.545 84.5976C549.623 86.7634 547.906 105.31 549.326 111.073C548.311 113.82 549.104 112.69 546.831 114.571Z" fill="#FCFBFC"/>
<path d="M381.52 502.9C381.456 499.427 381.254 496 381.725 492.571C383.303 491.427 382.422 491.868 384.815 491.895C388.154 495.207 387.395 513.302 385.261 517.617L384.071 518.483C383.193 518.288 382.449 518.346 382.225 517.707C381.312 515.085 381.503 508.807 381.483 506.056L381.52 502.9Z" fill="#FCFBFC"/>
<path d="M561.156 113.31C569.166 107.605 561.478 91 565.798 85.8293L567.068 85.539C570.827 89.0927 570.266 109.3 566.078 113.666C565.403 114.371 563.851 115.515 563 116.122C561.922 114.885 561.912 114.788 561.156 113.31Z" fill="#DBEBF1"/>
<path d="M607.515 493.544C609.569 498.602 609.311 495.444 611.498 498.717C609.474 502.232 613.572 516.737 609.328 519.173C606.159 515.971 607.672 499.4 607.515 493.544Z" fill="#DBEBF1"/>
<path d="M625.572 510.356C627.733 505.759 623.358 495.42 626.699 492.107L628.116 492C630.855 494.88 629.097 513.524 628.353 517.834C628.099 515.481 628.626 513.273 627.504 511.476C626.053 511.073 626.704 511.434 625.572 510.356Z" fill="#EBEBED"/>
<path d="M506.48 407.798C510.863 407.861 518.176 407.602 522.171 408.585L522.881 409.551C521.746 413.81 510.951 412.234 506.993 412.088C506.966 410.58 506.705 409.288 506.48 407.798Z" fill="#EBEBED"/>
<path d="M654.233 101.449C654.65 101.641 657.084 102.732 657.301 102.898L660.703 103.529L659.296 106.544C653.096 107.62 654.935 114.915 649.779 116.998C648.86 114.339 653.055 104.802 654.233 101.449Z" fill="#DBEBF1"/>
<path d="M542.693 509.824C543.102 505.807 541.29 492.785 544.298 491.376C546.902 494.554 546.344 513.463 545.476 517.744C545.261 515.139 545.793 512.307 544.493 510.2L542.693 509.824Z" fill="#DBEBF1"/>
<path d="M639.176 407.832C643.556 407.78 650.322 407.132 653.727 409.7L653.605 410.651C649.017 413.046 644.637 412.356 639.42 412.212C639.903 410.619 639.473 409.627 639.176 407.832Z" fill="#EBEBED"/>
<path d="M549.331 111.073C552.377 113.48 554.521 114.151 558.538 113.698C559.414 113.59 560.29 113.461 561.158 113.31C561.914 114.788 561.924 114.885 563.002 116.122C557.112 118.715 551.921 118.651 546.836 114.571C549.109 112.69 548.316 113.819 549.331 111.073Z" fill="#EBEBED"/>
<path d="M300.29 116.871C295.946 118.922 287.988 117.702 286.824 112.39C289.619 110.99 294.358 113.702 298.141 113.807C300.197 115.598 299.619 114.541 300.29 116.871Z" fill="#EBEBED"/>
<path d="M518.339 98.9927C522.666 98.9122 526.993 98.9122 531.32 98.9951L531.383 101.9L517.98 101.837C518.637 100.588 518.368 100.678 518.339 98.9927Z" fill="#EBEBED"/>
<path d="M679.987 84.7415C685.674 86.5512 683.435 91.7415 682.504 96.7341C680.462 96.0634 681.34 96.6049 679.838 94.939C678.691 91.239 678.757 88.3976 679.987 84.7415Z" fill="#FCFBFC"/>
<path d="M355.574 113.478C358.791 113.412 363.243 112.793 365.567 115.329C364.401 117.629 360.703 117.29 358.325 117.381C356.742 115.854 356.269 115.602 355.574 113.478Z" fill="#DBEBF1"/>
<path d="M371.642 502.971L381.522 502.9L381.485 506.056C378.227 505.783 374.912 505.751 371.637 505.666L371.642 502.971Z" fill="#DBEBF1"/>
</g>
<defs>
<linearGradient id="paint0_linear_702_2" x1="158.208" y1="331.117" x2="170.577" y2="327.444" gradientUnits="userSpaceOnUse">
<stop stop-color="#CDCDCD"/>
<stop offset="1" stop-color="#F8F8FB"/>
</linearGradient>
<linearGradient id="paint1_linear_702_2" x1="152.958" y1="236.005" x2="125.539" y2="246.312" gradientUnits="userSpaceOnUse">
<stop stop-color="#030303"/>
<stop offset="1" stop-color="#252525"/>
</linearGradient>
<linearGradient id="paint2_linear_702_2" x1="176.121" y1="255.587" x2="169.15" y2="258.563" gradientUnits="userSpaceOnUse">
<stop stop-color="#0B0C0C"/>
<stop offset="1" stop-color="#1F2925"/>
</linearGradient>
<clipPath id="clip0_702_2">
<rect width="999" height="600" fill="white"/>
</clipPath>
</defs>
</svg>
