<?xml version="1.0" encoding="utf-8" ?><svg xmlns="http://www.w3.org/2000/svg" xmlns:xlink="http://www.w3.org/1999/xlink" width="500" height="500" viewBox="0 0 500 500"><path fill="#0078BF" d="M393.958 127.068C402.337 126.861 411.296 127.044 419.716 127.048C426.968 127.052 434.996 126.865 442.186 127.094C444.769 127.13 447.495 127.208 450.067 127.193L450.035 372.973L385.84 372.996L40.4365 372.997L40.4205 127.034L271.287 127.044L346.409 127.043C359.056 127.043 373.42 126.685 385.912 127.122C388.507 127.125 391.387 127.19 393.958 127.068ZM116.783 236.011C117.616 236.214 117.427 236.038 117.991 236.536C118.122 235.446 117.827 234.595 117.575 233.516C117.179 232.158 116.975 230.683 117.657 229.402L116.881 229.791L116.558 229.584C116.505 228.847 116.421 228.225 116.321 227.499C116.11 230.539 117.279 234.707 116.783 236.011Z"/><path fill="#0078BF" d="M393.958 127.068C402.337 126.861 411.296 127.044 419.716 127.048C426.968 127.052 434.996 126.865 442.186 127.094C444.769 127.13 447.495 127.208 450.067 127.193L450.035 372.973L385.84 372.996C386.185 343.836 385.942 314.02 385.878 284.831L385.869 185.211C385.869 166.033 385.63 146.256 385.912 127.122C388.507 127.125 391.387 127.19 393.958 127.068Z"/><path fill="#FBB201" d="M442.186 127.094C444.769 127.13 447.495 127.208 450.067 127.193L450.035 372.973L385.84 372.996C386.185 343.836 385.942 314.02 385.878 284.831L385.869 185.211C385.869 166.033 385.63 146.256 385.912 127.122C388.507 127.125 391.387 127.19 393.958 127.068L393.938 240.166L393.926 273.202C393.925 278.897 393.501 286.383 394.345 291.853C397.319 311.146 423.961 315.904 436.603 302.841C443.878 295.324 442.18 282.912 442.179 273.059L442.177 240.499L442.186 127.094Z"/><path fill="#0078BF" d="M416.149 315.104C433.721 313.645 438.306 323.549 431.653 338.389C427.875 346.815 423.417 353.397 419.06 361.411L418.515 362.322L418.096 362.397C417.442 361.649 414.824 357.35 414.156 356.195C409.264 347.552 402.54 337.973 401.502 327.898C400.5 318.168 408.387 315.657 416.149 315.104Z"/><path fill="#2B2A2A" d="M89.5843 184.92C90.7193 185.678 91.2052 186.05 92.2206 186.96L92.7843 187.34C92.2617 187.658 92.436 187.584 91.878 187.745C92.1686 188.856 92.5407 189.405 93.5102 190.104L93.8697 190.029C93.662 189.275 93.6178 189.166 93.5586 188.357C94.177 188.147 94.3983 188.452 95.2092 188.828L95.6627 188.42C95.6693 187.611 95.6592 187.517 95.8337 186.691C96.3863 186.731 97.4798 187.832 98.1407 188.332C98.715 188.048 99.1037 187.701 99.6922 188.089C100.84 188.846 101.624 188.784 102.799 189.109C103.221 188.653 105.477 187.13 106.197 186.576C106.613 187.309 106.569 186.936 106.369 187.726L105.16 188.41C104.981 189.718 106.371 191.533 106.851 192.79C108.235 192.861 108.673 193.187 109.583 194.199C113.425 198.474 123.545 218.011 123.195 223.665C123.151 224.368 123.068 224.868 122.673 225.471L122.326 225.758C122.78 226.249 123.107 226.392 122.968 227.136C122.629 228.957 121.499 230.873 121.145 232.653C120.786 234.461 121.118 239.069 120.369 240.515C120.365 241.156 120.422 240.948 120.213 241.529C121.219 243.998 122.122 248.405 121.617 251.017C122.171 252.979 124.024 257.055 123.365 258.533C124.167 260.634 124.681 262.593 125.309 264.736C125.489 265.349 125.942 266.11 126.054 266.593C127.08 267.133 128.432 267.819 128.054 269.141C127.489 269.485 127.181 269.641 126.58 269.922L126.356 270.375C126.731 271.358 127.792 270.874 128.262 271.965C126.991 273.283 115.925 272.281 113.519 272.251C113.859 273.61 114.923 276.937 114.402 277.997C114.934 279.313 115.9 281.146 115.431 282.434C115.794 283.61 115.846 283.909 115.95 285.137L115.691 285.598L115.431 285.641L114.929 286.111C115.689 288.001 116.188 289.726 116.455 291.747C116.347 291.911 116.188 292.184 116.058 292.308L116.008 292.535C117.567 293.902 117.96 302.092 118.408 304.446C118.69 305.924 118.459 308.276 116.662 308.777L116.318 309.243C117.107 310.57 118.029 313.658 118.25 315.184L118.74 315.567C119.657 315.765 125.893 321.259 126.786 322.268C127.3 322.849 127.224 324.619 128.101 326.278C130.77 328.131 131.2 332.405 132.579 334.715C133.408 336.102 135.76 337.719 136.894 339.514C136.921 339.789 136.975 340.183 136.97 340.448C138.148 341.754 139.703 342.987 141.175 343.95C144.209 344.153 151.92 343.969 153.657 345.795C153.745 346.045 153.947 346.577 154.012 346.845C154.373 348.737 151.988 350.067 150.567 351.194L148.247 352.939C142.636 357.139 137.047 356.351 130.272 356.175C129.426 354.139 128.538 350.604 128.357 348.44C127.597 339.317 121.434 342.546 116.148 338.545L117.647 341.064C118.439 342.6 119.175 343.581 118.962 345.294L118.841 345.64C116.094 348.192 114.795 348.129 111.075 348.552C109.436 345.055 107.519 341.696 105.34 338.507C101.296 338.587 96.6923 338.907 92.6724 338.418C89.5371 338.014 86.4098 337.55 83.2922 337.027C80.7163 336.575 77.0425 335.671 74.6048 335.82C74.5367 337.573 73.4945 340.216 72.8551 341.927C77.1791 351.009 81.184 349.831 89.9708 351.897C91.0743 352.156 91.2982 353.33 91.2829 354.298C88.9072 357.079 71.5642 355.044 67.3741 355.994C65.7907 356.352 60.5286 356.249 58.5395 356.221L59.3896 352.675L59.2374 352.409L57.832 352.228C57.4541 353.591 56.8874 356.875 54.4068 356.19C53.6831 355.99 53.6148 355.701 53.3107 355.1C53.4042 354.113 53.6237 353.738 54.5239 353.275C55.2418 352.117 55.2308 350.763 55.8542 349.151L55.6951 348.887C55.6483 347.829 57.3266 343.715 57.9319 343.163C58.8546 340.449 59.7958 337.741 60.7555 335.04L60.6673 334.88C60.8806 332.666 61.1852 330.458 62.6639 328.678C63.9314 325.613 67.1079 318.953 67.6922 315.85C68.4905 311.61 67.8286 304.45 68.2784 299.873C68.9211 293.334 70.5027 287.192 71.7964 280.779L70.1465 279.28C69.3275 272.325 71.3585 273.876 71.9041 269.202C71.9092 264.09 72.4102 255.887 71.4052 251.065C69.6779 242.779 62.7464 240.037 63.2272 230.484C63.6062 229.978 63.9718 229.461 64.3237 228.935C66.0572 226.306 63.0428 225.403 65.5291 222.611C65.305 222.037 65.4373 221.715 65.5386 221.092C66.7382 219.334 66.732 218.8 68.3379 217.214C68.5248 215.044 70.3607 214.943 69.7825 212.882C69.2468 210.972 70.716 208.05 71.5211 206.275C73.5564 201.789 75.076 197.443 78.2507 193.604C79.0072 191.798 86.4709 186.802 88.3747 187.11L88.5359 186.902C88.3276 185.945 88.9782 185.586 89.5843 184.92ZM116.783 236.011C117.616 236.214 117.427 236.038 117.991 236.536C118.122 235.446 117.827 234.595 117.575 233.516C117.179 232.158 116.975 230.683 117.657 229.402L116.881 229.791L116.558 229.584C116.505 228.847 116.421 228.225 116.321 227.499C116.11 230.539 117.279 234.707 116.783 236.011Z"/><path fill="#FCFBFC" d="M89.5843 184.92C90.7193 185.678 91.2052 186.05 92.2206 186.96L92.7843 187.34C92.2617 187.658 92.436 187.584 91.878 187.745C92.1686 188.856 92.5407 189.405 93.5102 190.104L93.8697 190.029C93.662 189.275 93.6178 189.166 93.5586 188.357C94.177 188.147 94.3983 188.452 95.2092 188.828L95.6627 188.42C95.6693 187.611 95.6592 187.517 95.8337 186.691C96.3863 186.731 97.4798 187.832 98.1407 188.332C98.715 188.048 99.1037 187.701 99.6922 188.089C100.84 188.846 101.624 188.784 102.799 189.109C103.221 188.653 105.477 187.13 106.197 186.576C106.613 187.309 106.569 186.936 106.369 187.726L105.16 188.41C104.981 189.718 106.371 191.533 106.851 192.79C108.235 192.861 108.673 193.187 109.583 194.199C113.425 198.474 123.545 218.011 123.195 223.665C123.151 224.368 123.068 224.868 122.673 225.471L122.326 225.758C122.78 226.249 123.107 226.392 122.968 227.136C122.629 228.957 121.499 230.873 121.145 232.653C120.786 234.461 121.118 239.069 120.369 240.515C120.365 241.156 120.422 240.948 120.213 241.529C121.219 243.998 122.122 248.405 121.617 251.017C122.171 252.979 124.024 257.055 123.365 258.533C124.167 260.634 124.681 262.593 125.309 264.736C125.489 265.349 125.942 266.11 126.054 266.593C127.08 267.133 128.432 267.819 128.054 269.141C127.489 269.485 127.181 269.641 126.58 269.922L126.356 270.375C126.731 271.358 127.792 270.874 128.262 271.965C126.991 273.283 115.925 272.281 113.519 272.251C113.859 273.61 114.923 276.937 114.402 277.997C114.934 279.313 115.9 281.146 115.431 282.434C115.794 283.61 115.846 283.909 115.95 285.137L115.691 285.598L115.431 285.641L114.929 286.111C115.689 288.001 116.188 289.726 116.455 291.747C116.347 291.911 116.188 292.184 116.058 292.308L116.008 292.535C117.567 293.902 117.96 302.092 118.408 304.446C118.69 305.924 118.459 308.276 116.662 308.777C115.36 306.579 114.947 305.561 112.755 304.079L110.826 302.675L110.238 302.155L109.982 300.303C109.411 298.609 106.588 295.923 105.365 294.244C105.384 293.551 105.12 292.956 104.651 292.462C104.341 291.138 104.012 289.273 102.444 288.917C100.969 288.66 101.36 288.065 101.141 286.806C99.8439 279.335 98.4692 271.954 97.8223 264.383C97.7222 263.211 96.2834 261.107 96.1116 259.908C95.8732 258.245 95.8549 256.867 95.4555 255.199L95.3699 254.848C95.5852 253.753 96.0844 252.527 96.4789 251.465C96.478 249.974 96.2425 249.137 95.9098 247.716C95.8424 246.914 95.821 246.623 95.6171 245.817C94.7199 243.356 94.3459 235.873 94.1571 232.937C93.032 231.423 95.3802 230.129 92.7111 229.297L92.6673 229.093C91.6607 228.582 91.9532 226.975 91.9782 225.941C92.1289 221.578 92.4638 216.025 92.7904 211.709C90.7144 210.836 91.2922 209.672 89.3358 209.256C87.8412 206.388 90.3858 200.09 87.0642 197.991C86.0045 197.484 86.3132 197.603 85.5425 196.522L85.1223 196.201C84.3895 195.802 84.7104 196.072 84.2404 195.246C84.0458 194.318 84.2916 194.625 83.6402 194.179C82.0026 194.413 82.0924 194.573 80.9521 193.475C80.0754 193.107 79.2105 193.411 78.2507 193.604C79.0072 191.798 86.4709 186.802 88.3747 187.11L88.5359 186.902C88.3276 185.945 88.9782 185.586 89.5843 184.92ZM116.783 236.011C117.616 236.214 117.427 236.038 117.991 236.536C118.122 235.446 117.827 234.595 117.575 233.516C117.179 232.158 116.975 230.683 117.657 229.402L116.881 229.791L116.558 229.584C116.505 228.847 116.421 228.225 116.321 227.499C116.11 230.539 117.279 234.707 116.783 236.011Z"/><path fill="#B3B2B4" fill-opacity="0.97647059" d="M116.321 227.499C116.421 228.225 116.505 228.847 116.558 229.584L116.881 229.791L117.657 229.402C116.975 230.683 117.179 232.158 117.575 233.516C117.827 234.595 118.122 235.446 117.991 236.536C117.427 236.038 117.616 236.214 116.783 236.011C117.279 234.707 116.11 230.539 116.321 227.499Z"/><path fill="#2B2A2A" d="M113.326 240.743C113.312 238.76 112.269 235.555 112.857 234.43L113.3 234.47L113.943 235.292L114.224 234.961C118.219 239.145 118.626 245.325 121.617 251.017C122.171 252.979 124.024 257.055 123.365 258.533C124.167 260.634 124.681 262.593 125.309 264.736C125.489 265.349 125.942 266.11 126.054 266.593C127.08 267.133 128.432 267.819 128.054 269.141C127.489 269.485 127.181 269.641 126.58 269.922L126.356 270.375C126.731 271.358 127.792 270.874 128.262 271.965C126.991 273.283 115.925 272.281 113.519 272.251C113.859 273.61 114.923 276.937 114.402 277.997C110.09 272.316 102.881 258.507 101.898 251.441C101.944 249.837 101.229 247.714 102.084 246.384C102.904 246.527 102.504 246.361 103.187 247.208L103.836 247.005L104.111 246.28L104.745 246.197L105.476 245.211L105.981 245.253C106.36 244.545 106.437 244.391 106.713 243.596C107.174 242.327 107.211 242.078 107.329 240.728C107.748 241.627 107.727 242.182 108.803 242.324C109.246 242.096 109.697 242.011 110.185 241.877C111.714 240.09 110.139 239.423 110.857 237.007C111.54 237.275 112.021 237.387 112.518 237.923C112.77 239.048 112.676 239.782 113.326 240.743Z"/><path fill="#FCFBFC" d="M113.326 240.743C113.312 238.76 112.269 235.555 112.857 234.43L113.3 234.47L113.943 235.292L114.224 234.961C118.219 239.145 118.626 245.325 121.617 251.017C122.171 252.979 124.024 257.055 123.365 258.533C124.167 260.634 124.681 262.593 125.309 264.736C125.489 265.349 125.942 266.11 126.054 266.593C124.891 267.017 123.73 267.448 122.572 267.886C123.106 267.032 123.393 266.707 123.602 265.745L123.23 265.506C122.181 265.624 121.74 265.777 120.801 265.4C120.326 264.713 120.389 265.065 120.474 264.34C121.07 263.94 120.903 264.118 121.331 263.564C121.17 262.884 118.216 255.787 117.848 255.146L117.27 255.256C116.86 254.701 116.463 254.136 116.079 253.563C115.84 252.07 114.978 249.135 114.611 247.37C114.196 245.375 113.788 242.554 113.326 240.743Z"/><path d="M114.224 234.961C118.219 239.145 118.626 245.325 121.617 251.017C122.171 252.979 124.024 257.055 123.365 258.533C121.743 255.318 119.813 251.546 118.622 248.173C116.988 243.548 116.019 239.812 113.943 235.292L114.224 234.961Z"/><defs><linearGradient id="gradient_0" gradientUnits="userSpaceOnUse" x1="105.27644" y1="262.758" x2="110.34774" y2="261.25208"><stop offset="0" stop-color="#CDCDCD"/><stop offset="1" stop-color="#F8F8FB"/></linearGradient></defs><path fill="url(#gradient_0)" d="M101.898 251.441C101.944 249.837 101.229 247.714 102.084 246.384C102.904 246.527 102.504 246.361 103.187 247.208L103.836 247.005C104.031 247.5 104.49 249.323 104.591 249.496C105.007 251.019 105.447 252.537 105.909 254.047L104.659 255.32L104.882 255.591C106.686 256.445 106.059 257.487 107.525 258.084C107.657 259.369 107.637 260 107.58 261.298C108.492 264.265 109.463 267.686 111.532 270.046L111.822 269.998L111.737 269.739C112.024 268.708 112.021 268.657 112.751 267.914C113.382 269.612 113.398 270.457 113.519 272.251C113.859 273.61 114.923 276.937 114.402 277.997C110.09 272.316 102.881 258.507 101.898 251.441Z"/><path d="M103.187 247.208L103.836 247.005C104.031 247.5 104.49 249.323 104.591 249.496C105.007 251.019 105.447 252.537 105.909 254.047L104.659 255.32C104.09 253.83 103.56 249.12 103.187 247.208Z"/><path fill="#353B3B" d="M104.882 255.591C106.686 256.445 106.059 257.487 107.525 258.084C107.657 259.369 107.637 260 107.58 261.298C106.621 259.327 105.548 257.68 104.882 255.591Z"/><path d="M104.591 249.496L104.959 248.898C106.014 248.805 106.221 249.164 106.587 250.178C106.964 249.473 106.693 249.766 107.547 249.397L107.993 250.008C108.258 252.128 108.548 254.244 108.862 256.357C109.393 257.863 111.857 268.506 111.737 269.739L111.822 269.998L111.532 270.046C109.463 267.686 108.492 264.265 107.58 261.298C107.637 260 107.657 259.369 107.525 258.084C106.059 257.487 106.686 256.445 104.882 255.591L104.659 255.32L105.909 254.047C105.447 252.537 105.007 251.019 104.591 249.496Z"/><path fill="#8F9093" d="M104.591 249.496L104.959 248.898C106.014 248.805 106.221 249.164 106.587 250.178C106.789 251.401 107.026 252.552 107.037 253.791C106.796 253.843 106.1 253.976 105.909 254.047C105.447 252.537 105.007 251.019 104.591 249.496Z"/><path fill="#B3B2B4" d="M105.909 254.047C106.1 253.976 106.796 253.843 107.037 253.791C107.232 255.15 107.517 256.732 107.525 258.084C106.059 257.487 106.686 256.445 104.882 255.591L104.659 255.32L105.909 254.047Z"/><path fill="#CED1D4" d="M107.329 240.728C107.748 241.627 107.727 242.182 108.803 242.324C109.751 244.925 110.058 245.371 110.03 248.14L109.907 250.003L109.664 250.215C109.078 250.107 108.59 249.984 107.993 250.008L107.547 249.397C106.693 249.766 106.964 249.473 106.587 250.178C106.221 249.164 106.014 248.805 104.959 248.898L104.591 249.496C104.49 249.323 104.031 247.5 103.836 247.005L104.111 246.28L104.745 246.197L105.476 245.211L105.981 245.253C106.36 244.545 106.437 244.391 106.713 243.596C107.174 242.327 107.211 242.078 107.329 240.728Z"/><path fill="#353B3B" d="M104.111 246.28L104.745 246.197L105.476 245.211L105.981 245.253C105.895 247.159 107.264 246.991 107.547 249.397C106.693 249.766 106.964 249.473 106.587 250.178C106.221 249.164 106.014 248.805 104.959 248.898L104.591 249.496C104.49 249.323 104.031 247.5 103.836 247.005L104.111 246.28Z"/><path fill="#CED1D4" d="M108.862 256.357L109.384 254.942L109.619 254.916C109.909 255.53 110.105 256.02 110.515 256.568C111.533 260.714 112.11 263.635 112.751 267.914C112.021 268.657 112.024 268.708 111.737 269.739C111.857 268.506 109.393 257.863 108.862 256.357Z"/><path fill="#EBEBED" d="M116.079 253.563C116.463 254.136 116.86 254.701 117.27 255.256L117.848 255.146C117.577 256.708 119.029 262.235 119.345 264.444C116.287 260.744 116.395 258.051 116.079 253.563Z"/><path fill="#B3B2B4" d="M110.03 248.14C110.479 251.158 109.828 254.138 110.515 256.568C110.105 256.02 109.909 255.53 109.619 254.916L109.384 254.942L108.862 256.357C108.548 254.244 108.258 252.128 107.993 250.008C108.59 249.984 109.078 250.107 109.664 250.215L109.907 250.003L110.03 248.14Z"/><defs><linearGradient id="gradient_1" gradientUnits="userSpaceOnUse" x1="103.1209" y1="223.76192" x2="91.879105" y2="227.98808"><stop offset="0" stop-color="#030303"/><stop offset="1" stop-color="#252525"/></linearGradient></defs><path fill="url(#gradient_1)" d="M92.9555 195.133C94.5095 200.039 96.1421 204.986 97.8317 209.854C98.3578 211.37 98.5756 214.762 98.7634 216.478C98.8809 217.216 98.9068 217.609 99.2086 218.305L100.259 218.537C101.261 219.337 102.229 220.117 102.916 221.232C103.634 223.613 105.6 229.799 105.272 231.987C105.257 232.351 105.211 232.883 105.253 233.227L105.348 233.712C105.902 236.614 105.693 237.925 107.329 240.728C107.211 242.078 107.174 242.327 106.713 243.596C106.437 244.391 106.36 244.545 105.981 245.253L105.476 245.211L104.745 246.197L104.111 246.28L103.836 247.005L103.187 247.208C102.504 246.361 102.904 246.527 102.084 246.384C101.229 247.714 101.944 249.837 101.898 251.441L101.618 251.248C101.506 251.59 101.412 251.88 101.313 252.228L101.073 252.318C101.07 252.32 101.066 252.322 101.063 252.323C100.933 251.726 100.99 252.034 100.895 251.399L100.656 251.92C100.603 251.792 100.147 249.101 100.073 248.754C99.3665 245.458 98.84 241.974 97.9363 238.737C97.8083 238.22 96.626 236.786 96.4871 236.255C95.9443 234.181 96.2428 230.732 96.3147 228.563C94.9658 222.928 95.134 213.783 94.5183 207.811C94.0942 203.697 93.1701 199.158 92.9555 195.133Z"/><path fill="#EBEBED" d="M98.7634 216.478C98.8809 217.216 98.9068 217.609 99.2086 218.305L100.259 218.537C101.261 219.337 102.229 220.117 102.916 221.232C103.634 223.613 105.6 229.799 105.272 231.987L103.716 232.49L103.542 233.132C102.386 233.65 101.901 233.192 100.908 232.516C100.182 228.298 98.6211 220.419 98.7634 216.478Z"/><path d="M102.916 221.232C103.634 223.613 105.6 229.799 105.272 231.987L103.716 232.49C102.921 229.368 102.311 225.812 101.61 222.611L102.916 221.232Z"/><path fill="#2B2A2A" d="M101.61 222.611C101.157 221.002 99.8578 219.875 100.259 218.537C101.261 219.337 102.229 220.117 102.916 221.232L101.61 222.611Z"/><path fill="#B3B2B4" d="M103.716 232.49L105.272 231.987C105.257 232.351 105.211 232.883 105.253 233.227L105.348 233.712C105.902 236.614 105.693 237.925 107.329 240.728C107.211 242.078 107.174 242.327 106.713 243.596C106.437 244.391 106.36 244.545 105.981 245.253L105.476 245.211L104.745 246.197L104.111 246.28C102.682 242.746 101.613 236.343 100.908 232.516C101.901 233.192 102.386 233.65 103.542 233.132L103.716 232.49Z"/><path fill="#6E7374" d="M106.713 243.596C105.968 241.984 103.742 234.912 104.387 233.463L105.253 233.227L105.348 233.712C105.902 236.614 105.693 237.925 107.329 240.728C107.211 242.078 107.174 242.327 106.713 243.596Z"/><path fill="#6E7374" d="M96.3147 228.563C96.7516 229.248 96.933 229.379 97.5542 229.857C98.0571 232.477 99.0439 236.398 97.9363 238.737C97.8083 238.22 96.626 236.786 96.4871 236.255C95.9443 234.181 96.2428 230.732 96.3147 228.563Z"/><path d="M106.851 192.79C108.235 192.861 108.673 193.187 109.583 194.199C113.425 198.474 123.545 218.011 123.195 223.665C123.151 224.368 123.068 224.868 122.673 225.471L122.326 225.758C117.647 222.491 116.239 210.777 113.694 205.551C111.799 201.662 109.515 198.12 107.548 194.318C107.065 193.65 106.961 193.618 106.851 192.79Z"/><path fill="#EBEBED" d="M106.851 192.79C108.235 192.861 108.673 193.187 109.583 194.199C113.425 198.474 123.545 218.011 123.195 223.665C123.151 224.368 123.068 224.868 122.673 225.471C122.122 224.401 120.104 218.26 119.712 216.748C118.579 212.381 111.104 196.751 108.106 194.18L107.548 194.318C107.065 193.65 106.961 193.618 106.851 192.79Z"/><path fill="#FCFBFC" d="M114.855 223.456L115.009 223.799L115.611 223.748L116.321 227.499C116.11 230.539 117.279 234.707 116.783 236.011C117.616 236.214 117.427 236.038 117.991 236.536C118.633 238.65 119.069 239.585 120.213 241.529C121.219 243.998 122.122 248.405 121.617 251.017C118.626 245.325 118.219 239.145 114.224 234.961C112.358 230.787 112.311 231.247 110.811 226.665L111.438 226.106C111.961 225.708 112.26 225.365 112.897 225.37C113.297 226.444 113.299 226.499 114.13 227.244C114.239 226.676 113.952 224.607 113.891 223.867L114.855 223.456Z"/><path d="M114.855 223.456L115.009 223.799L115.611 223.748L116.321 227.499C116.11 230.539 117.279 234.707 116.783 236.011L116.316 235.878C114.984 234.162 115.046 229.835 114.984 227.696L114.13 227.244C114.239 226.676 113.952 224.607 113.891 223.867L114.855 223.456Z"/><path fill="#EBEBED" d="M114.855 223.456L115.009 223.799C115.007 224.993 115.044 226.532 114.984 227.696L114.13 227.244C114.239 226.676 113.952 224.607 113.891 223.867L114.855 223.456Z"/><path d="M100.656 251.92L100.895 251.399C100.99 252.034 100.933 251.726 101.063 252.323C101.066 252.322 101.07 252.32 101.073 252.318L101.313 252.228C101.412 251.88 101.506 251.59 101.618 251.248L101.898 251.441C102.881 258.507 110.09 272.316 114.402 277.997C114.934 279.313 115.9 281.146 115.431 282.434C115.015 281.716 114.838 281.236 114.533 280.477C113.821 279.405 112.703 278.276 111.971 277.039C108.239 270.726 103.222 263.561 101.175 256.512C100.85 255.393 100.73 253.08 100.656 251.92Z"/><path d="M107.967 210.682C106.45 210.005 106.067 209.844 105.407 207.994C104.485 205.406 103.846 202.824 102.827 200.244L102.977 199.812C104.895 200.23 105.673 204.777 106.574 206.36C107.514 208.011 109.132 209.208 110.229 210.756C111.619 213.339 113.487 220.906 113.891 223.867C113.952 224.607 114.239 226.676 114.13 227.244C113.299 226.499 113.297 226.444 112.897 225.37C112.795 223.582 110.663 218.242 110.055 215.209C109.577 213.667 108.859 212.029 107.967 210.682Z"/><path d="M107.967 210.682C108.859 212.029 109.577 213.667 110.055 215.209C110.663 218.242 112.795 223.582 112.897 225.37C112.26 225.365 111.961 225.708 111.438 226.106L110.811 226.665L110.389 226.747C109.53 225.211 108.849 221.354 108.222 219.529C107.445 217.268 106.657 214.859 105.986 212.565C106.073 212.328 106.16 212.091 106.246 211.854C107.087 211.187 106.629 211.348 107.636 211.275L107.967 210.682Z"/><path fill="#CED1D4" d="M110.055 215.209C110.663 218.242 112.795 223.582 112.897 225.37C112.26 225.365 111.961 225.708 111.438 226.106C112.179 224.06 110.095 219.481 109.19 217.495C110.157 216.665 109.949 216.494 110.055 215.209Z"/><path fill="#EBEBED" d="M107.967 210.682C108.859 212.029 109.577 213.667 110.055 215.209C109.949 216.494 110.157 216.665 109.19 217.495C108.824 216.813 106.827 213.445 106.999 212.907C107.166 212.387 107.661 212.902 107.636 211.275L107.967 210.682Z"/><path fill="#6E7374" d="M89.3358 209.256C90.0762 208.639 90.1615 208.773 90.2239 207.544C90.3989 204.102 90.1949 200.445 89.8152 197.023C89.6659 195.679 88.9275 193.054 88.9905 191.948L89.3221 191.798C91.4925 193.348 91.1463 204.835 91.8249 207.608C91.9827 208.252 92.6933 208.587 93.1982 208.899C93.517 210.031 93.1925 210.507 92.7904 211.709C90.7144 210.836 91.2922 209.672 89.3358 209.256Z"/><path fill="#EBEBED" d="M93.8697 190.029C93.662 189.275 93.6178 189.166 93.5586 188.357C94.177 188.147 94.3983 188.452 95.2092 188.828L95.1439 190.216C96.5798 194.56 98.0418 197.295 100.645 200.975C99.7384 201.417 99.6943 201.226 99.4694 202.263C99.1928 201.446 99.0477 200.544 98.2096 200.236C97.6068 200.857 97.6297 201.437 97.4926 202.311C97.2593 201.495 97.2381 201.176 96.66 200.543C96.7429 200.351 96.8258 200.159 96.9087 199.967C95.7574 196.82 94.614 193.204 93.8697 190.029Z"/><path fill="#353B3B" d="M89.5843 184.92C90.7193 185.678 91.2052 186.05 92.2206 186.96L92.7843 187.34C92.2617 187.658 92.436 187.584 91.878 187.745C92.1686 188.856 92.5407 189.405 93.5102 190.104L93.8697 190.029C94.614 193.204 95.7574 196.82 96.9087 199.967C96.8258 200.159 96.7429 200.351 96.66 200.543C94.9134 198.055 93.9924 194.07 93.2159 191.113C91.5168 190.602 89.1972 188.711 88.3747 187.11L88.5359 186.902C88.3276 185.945 88.9782 185.586 89.5843 184.92Z"/><path fill="#EBEBED" d="M89.5843 184.92C90.7193 185.678 91.2052 186.05 92.2206 186.96C91.2383 187.439 89.653 187.074 88.5359 186.902C88.3276 185.945 88.9782 185.586 89.5843 184.92Z"/><defs><linearGradient id="gradient_2" gradientUnits="userSpaceOnUse" x1="112.61846" y1="231.79074" x2="109.76037" y2="233.011"><stop offset="0" stop-color="#0B0C0C"/><stop offset="1" stop-color="#1F2925"/></linearGradient></defs><path fill="url(#gradient_2)" d="M110.389 226.747L110.811 226.665C112.311 231.247 112.358 230.787 114.224 234.961L113.943 235.292L113.3 234.47L112.857 234.43C112.269 235.555 113.312 238.76 113.326 240.743C112.676 239.782 112.77 239.048 112.518 237.923C112.021 237.387 111.54 237.275 110.857 237.007C110.753 234.39 110.74 229.102 110.389 226.747Z"/><path d="M95.1439 190.216L95.6426 190.21C97.2412 192.63 101.556 199.702 101.544 202.413C100.951 202.062 100.974 201.753 100.645 200.975C98.0418 197.295 96.5798 194.56 95.1439 190.216Z"/><path fill="#4D5156" d="M103.376 191.892L104.333 191.798C105.132 195.818 109.595 201.402 109.023 204.88L108.641 204.828C107.924 203.449 107.43 201.87 106.839 200.401C105.79 197.795 104.081 194.578 103.376 191.892Z"/><path d="M98.1407 188.332C98.715 188.048 99.1037 187.701 99.6922 188.089C100.84 188.846 101.624 188.784 102.799 189.109C103.866 190.13 104.232 190.319 104.333 191.798L103.376 191.892C102.772 191.176 101.835 190.724 101.012 190.241C99.8257 190.314 98.9077 189.12 98.1407 188.332Z"/><path fill="#4D5156" d="M117.575 233.516C117.179 232.158 116.975 230.683 117.657 229.402L118.379 230.765C118.526 234.555 118.623 237.103 120.369 240.515C120.365 241.156 120.422 240.948 120.213 241.529C119.069 239.585 118.633 238.65 117.991 236.536C118.122 235.446 117.827 234.595 117.575 233.516Z"/><path d="M117.575 233.516C117.179 232.158 116.975 230.683 117.657 229.402L118.379 230.765C118.24 231.883 118.348 232.841 117.575 233.516Z"/><path d="M97.4926 202.311C97.6297 201.437 97.6068 200.857 98.2096 200.236C99.0477 200.544 99.1928 201.446 99.4694 202.263C99.3904 202.974 98.9199 203.863 99 204.58C99.1552 205.97 100.134 207.377 99.5662 208.721L99.1268 208.577C97.9753 207.029 98.7263 204.119 97.4926 202.311Z"/><path fill="#EBEBED" d="M109.982 300.303C112.132 300.549 114.882 301.244 112.755 304.079L110.826 302.675L110.238 302.155L109.982 300.303Z"/><path fill="#4D5156" d="M92.6673 229.093C93.1931 226.773 93.8798 223.263 94.7644 221.163C94.4963 225.469 94.2703 228.611 94.1571 232.937C93.032 231.423 95.3802 230.129 92.7111 229.297L92.6673 229.093Z"/><path fill="#CED1D4" d="M95.2092 188.828L95.6627 188.42C95.6693 187.611 95.6592 187.517 95.8337 186.691C96.3863 186.731 97.4798 187.832 98.1407 188.332C98.9077 189.12 99.8257 190.314 101.012 190.241C100.674 190.622 100.509 190.741 100.278 191.181C99.1355 190.528 98.5552 190.039 97.5343 189.233L97.1179 189.33L96.3118 188.879L95.898 189.037C95.8149 189.407 95.7033 189.843 95.6426 190.21L95.1439 190.216L95.2092 188.828Z"/><path fill="#EBEBED" d="M114.533 280.477C114.838 281.236 115.015 281.716 115.431 282.434C115.794 283.61 115.846 283.909 115.95 285.137L115.691 285.598L115.431 285.641C114.818 284.525 113.834 282.562 113.021 281.689C114.17 281.157 113.805 281.493 114.533 280.477Z"/><path fill="#2B2A2A" d="M111.844 286.16C113.721 288.816 113.528 289.604 116.058 292.308L116.008 292.535C114.7 292.277 114.415 292.03 113.269 291.353C112.933 289.538 112.39 287.92 111.844 286.16Z"/><path d="M113.021 281.689C113.834 282.562 114.818 284.525 115.431 285.641L114.929 286.111C113.474 284.376 112.881 283.837 113.021 281.689Z"/><path fill="#4D5156" d="M97.1179 189.33L97.5343 189.233C98.5552 190.039 99.1355 190.528 100.278 191.181C100.452 191.78 100.466 191.739 100.345 192.346L99.8973 192.331C98.7923 191.498 97.99 190.404 97.1179 189.33Z"/><path fill="#4D5156" d="M114.855 223.456C114.739 222.448 114.566 221.925 114.949 221.035C115.63 221.66 115.554 222.786 115.611 223.748L115.009 223.799L114.855 223.456Z"/><path d="M105.926 220.71C108.112 222.002 108.253 226.083 109.239 228.148C109.574 228.849 109.565 228.773 109.824 229.569C108.93 229.245 108.86 229.282 108.164 228.597C107.8 226.435 105.647 221.911 105.926 220.71Z"/><path fill="#FCFBFC" d="M118.74 315.567C119.657 315.765 125.893 321.259 126.786 322.268C127.3 322.849 127.224 324.619 128.101 326.278C130.77 328.131 131.2 332.405 132.579 334.715C133.408 336.102 135.76 337.719 136.894 339.514C136.921 339.789 136.975 340.183 136.97 340.448C138.148 341.754 139.703 342.987 141.175 343.95C144.209 344.153 151.92 343.969 153.657 345.795C153.745 346.045 153.947 346.577 154.012 346.845C154.373 348.737 151.988 350.067 150.567 351.194L148.247 352.939C148.174 352.114 147.793 351.681 147.129 351.224L146.611 351.415C144.116 350.278 143.505 350.831 141.31 352.125C140.341 349.457 140.372 349.553 137.883 348.653C136.915 348.304 138.027 344.747 137.901 343.487L137.518 343.175C136.947 343.263 136.561 343.3 135.985 343.34C132.212 340.186 130.196 338.042 127.739 333.764C127.421 333.211 126.319 333.288 125.702 333.24C124.807 332.53 125.913 331.973 125.045 331.391C124.202 330.825 122.937 330.832 122.31 329.677L122.477 329.37C123.204 329.383 123.657 329.432 124.373 329.256C124.196 328.524 121.308 325.766 120.597 325.02C119.999 324.344 119.85 324.234 119.503 323.373L118.71 322.134L118.113 322.651C117.191 321.666 117.332 321.393 117.264 319.919L117.149 319.708C117.396 318.431 118.202 316.8 118.74 315.567Z"/><path d="M128.101 326.278C130.77 328.131 131.2 332.405 132.579 334.715C133.408 336.102 135.76 337.719 136.894 339.514C136.921 339.789 136.975 340.183 136.97 340.448C135.044 339.272 129.456 335.035 129.798 332.492L130.493 332.055C130.656 331.491 128.632 327.885 128.101 326.278Z"/><path d="M154.012 346.845C154.373 348.737 151.988 350.067 150.567 351.194C149.652 350.748 149.516 350.745 149.007 349.918C150.749 348.675 152.036 347.68 154.012 346.845Z"/><path d="M147.129 351.224C146.56 350.431 146.568 350.478 146.347 349.535L146.672 349.21L147.762 349.344C148.283 349.769 148.34 349.835 149.007 349.918C149.516 350.745 149.652 350.748 150.567 351.194L148.247 352.939C148.174 352.114 147.793 351.681 147.129 351.224Z"/><path d="M117.264 319.919C118.382 319.617 118.168 319.474 118.918 319.879C119.171 320.696 118.917 321.286 118.71 322.134L118.113 322.651C117.191 321.666 117.332 321.393 117.264 319.919Z"/><path fill="#FCFBFC" d="M78.3022 231.023C80.921 232.091 78.8767 234.115 79.3908 234.875C81.3678 237.795 84.5949 239.804 87.1843 242.067C90.1275 244.639 91.8481 249.8 93.1035 253.321C93.0488 254.551 93.2217 254.835 92.1919 255.778C91.452 256.47 91.7102 256.43 90.8587 256.588C89.4401 256.099 87.7532 255.798 87.7443 254.069C88.1091 253.749 88.472 253.426 88.833 253.1L88.6839 252.572C88.0777 252.241 87.8229 252.201 87.5277 251.595C87.9627 250.471 88.4874 251.372 88.9476 250.478C87.5448 250.317 85.7168 251.305 83.8488 251.17L83.7459 250.85C84.5905 249.796 85.7736 249.55 86.1294 248.678C85.7581 248.005 84.5319 247.455 83.8057 247.043C82.365 244.472 81.5687 242.129 78.8986 241.219L78.7002 241.246C71.2728 241.359 75.6452 236.368 77.3585 233.068C75.8857 233.979 75.5278 234.331 74.2818 235.505C74.055 234.6 73.8805 233.879 73.7212 232.962C74.3008 231.781 74.865 233.032 76.4922 231.281C76.9117 231.105 77.8011 231.072 78.3022 231.023Z"/><path fill="#4D5156" d="M78.7002 241.246C78.1293 240.06 77.1348 239.4 76.876 238.365L77.187 238.046C79.0687 238.209 79.4859 239.65 78.8986 241.219L78.7002 241.246Z"/><path d="M63.081 329.047C63.5652 327.766 64.5666 325.024 66.2734 325.746C66.3749 326.39 66.2705 326.432 66.0003 327.054C65.8637 327.372 65.6159 327.854 65.587 328.17C66.2739 329.758 64.798 332.85 64.207 334.541C62.8959 338.409 61.4891 342.243 59.988 346.041C59.9207 346.207 59.8534 346.372 59.7861 346.537C60.1568 346.968 60.4975 347.373 60.8987 347.778C60.3605 349.399 59.8573 351.032 59.3896 352.675L59.2374 352.409L57.832 352.228C57.4541 353.591 56.8874 356.875 54.4068 356.19C53.6831 355.99 53.6148 355.701 53.3107 355.1C53.4042 354.113 53.6237 353.738 54.5239 353.275C55.2418 352.117 55.2308 350.763 55.8542 349.151L55.6951 348.887C55.6483 347.829 57.3266 343.715 57.9319 343.163C58.8546 340.449 59.7958 337.741 60.7555 335.04L60.6673 334.88C60.8806 332.666 61.1852 330.458 62.6639 328.678L63.081 329.047Z"/><path fill="#EBEBED" d="M55.8542 349.151C56.3809 347.882 56.9754 346.119 57.8434 345.135C58.5799 345.074 58.2297 345.003 58.9055 345.448C59.2614 347.371 56.7947 353.886 55.0912 354.963L54.5984 354.829C54.3425 354.232 54.4525 353.934 54.5239 353.275C55.2418 352.117 55.2308 350.763 55.8542 349.151Z"/><path fill="#FCFBFC" d="M63.081 329.047C63.5652 327.766 64.5666 325.024 66.2734 325.746C66.3749 326.39 66.2705 326.432 66.0003 327.054C65.8637 327.372 65.6159 327.854 65.587 328.17L65.4385 328.464C64.6701 330.018 63.8773 332.796 63.1961 333.744C62.2666 333.805 62.7237 333.871 61.8042 333.401C61.3795 331.951 62.3834 330.491 63.081 329.047Z"/><path fill="#EBEBED" d="M60.7555 335.04C61.9074 334.949 61.4336 334.801 62.3035 335.243C62.53 336.321 60.3734 343.025 59.1384 343.6C58.4819 343.477 58.4908 343.511 57.9319 343.163C58.8546 340.449 59.7958 337.741 60.7555 335.04Z"/><path fill="#016EC1" d="M59.7861 346.537C60.1568 346.968 60.4975 347.373 60.8987 347.778C60.3605 349.399 59.8573 351.032 59.3896 352.675L59.2374 352.409L57.832 352.228C58.4488 350.896 59.2971 348.031 59.7861 346.537Z"/><path fill="#FCFBFC" d="M108.24 307.91C107.505 306.556 105.471 303.891 106.888 302.38C107.967 302.363 108.641 303.168 109.795 303.642L110.18 303.796C110.377 303.192 110.441 303.221 110.826 302.675L112.755 304.079C114.947 305.561 115.36 306.579 116.662 308.777L116.318 309.243C117.107 310.57 118.029 313.658 118.25 315.184C116.707 314.863 115.159 314.569 113.606 314.305C112.522 314.342 112.439 314.374 111.445 314.012C110.11 313.351 104.476 306.491 103.509 305.035C104.971 305.797 106.804 307.013 108.24 307.91Z"/><path d="M110.18 303.796C110.377 303.192 110.441 303.221 110.826 302.675L112.755 304.079C114.947 305.561 115.36 306.579 116.662 308.777L116.318 309.243L115.561 308.846C115.094 309.063 114.791 309.123 114.492 309.472L114.369 310.065C113.636 310.912 111.618 311.44 110.595 310.552C110.41 309.68 110.37 310.093 110.722 309.271C111.491 308.964 111.327 309.097 112.336 309.387C113.194 308.298 109.998 306.89 110.455 305.388C110.55 305.076 110.282 304.135 110.18 303.796Z"/><path fill="#EBEBED" d="M114.492 309.472C113.33 308.186 112.491 307.416 111.894 305.765L112.124 305.608C113.774 306.346 113.853 307.314 115.355 308.664L115.561 308.846C115.094 309.063 114.791 309.123 114.492 309.472Z"/><path fill="#4D5156" d="M111.445 314.012L111.365 312.866C112.371 311.825 114.946 312.264 116.538 312.09C115.554 312.715 114.252 313.399 113.606 314.305C112.522 314.342 112.439 314.374 111.445 314.012Z"/><path fill="#FCFBFC" d="M71.6083 342.312C71.7653 341.645 71.9373 340.983 72.1242 340.324C72.5865 338.651 73.0804 336.681 74.6048 335.82C74.5367 337.573 73.4945 340.216 72.8551 341.927C77.1791 351.009 81.184 349.831 89.9708 351.897C91.0743 352.156 91.2982 353.33 91.2829 354.298C88.0825 352.691 82.3393 352.229 78.6625 351.762C75.906 347.782 73.5943 349.04 71.6083 342.312Z"/><path fill="#0078BF" d="M66.0003 327.054C66.4488 327.093 66.9562 327.031 67.1798 327.313C67.8791 328.195 67.5789 330.35 67.3408 331.407C66.0019 337.351 63.6536 342.433 60.8987 347.778C60.4975 347.373 60.1568 346.968 59.7861 346.537C59.8534 346.372 59.9207 346.207 59.988 346.041C61.4891 342.243 62.8959 338.409 64.207 334.541C64.798 332.85 66.2739 329.758 65.587 328.17C65.6159 327.854 65.8637 327.372 66.0003 327.054Z"/><path fill="#EBEBED" d="M65.5386 221.092L66.9442 221.053C67.6364 222.128 67.562 223.086 67.6603 224.39C69.0795 224.973 71.8299 226.141 73.3149 226.444C72.4634 226.868 72.0771 226.843 71.8401 227.496L72.1795 227.86C72.2902 228.456 72.2012 228.743 72.5824 228.911C74.5176 229.759 76.3015 230.115 78.3022 231.023C77.8011 231.072 76.9117 231.105 76.4922 231.281C74.2973 230.15 71.3862 231.512 69.9715 229.26C70.1921 227.559 70.6791 228.684 71.0509 227.317C67.392 224.651 66.3339 228.722 65.5291 222.611C65.305 222.037 65.4373 221.715 65.5386 221.092Z"/><path fill="#CED1D4" d="M93.1035 253.321L94.1311 256.575L93.5289 259.309C89.368 262.223 90.1998 264.996 87.5166 268.72C87.3692 268.924 86.2528 269.276 85.9517 269.372L85.5359 269.293C85.4265 267.321 89.9089 260.701 91.7939 259.066C92.1094 257.938 92.6473 256.764 92.1919 255.778C93.2217 254.835 93.0488 254.551 93.1035 253.321Z"/><path fill="#6E7374" d="M103.615 296.278C104.099 294.95 103.994 294.637 105.365 294.244C106.588 295.923 109.411 298.609 109.982 300.303L110.238 302.155C106.568 300.88 106.867 298.916 103.615 296.278Z"/><path fill="#8F9093" d="M83.0431 212.165L82.9827 211.874C82.7585 210.749 82.5842 209.518 82.5769 208.368C82.5463 203.52 81.3633 199.547 84.2404 195.246C84.7104 196.072 84.3895 195.802 85.1223 196.201C83.3434 197.471 83.9388 205.72 83.6661 208.052C83.4727 209.706 83.4336 210.402 83.0431 212.165Z"/><path fill="#EBEBED" d="M118.113 322.651L118.71 322.134L119.503 323.373C119.85 324.234 119.999 324.344 120.597 325.02C119.477 326.767 120.589 330.955 120.045 333.996C119.888 332.583 120.37 331.532 119.148 330.706L118.648 330.871L118.393 329.258C118.061 328.411 118.448 327.957 117.545 326.26C117.953 324.931 118.211 324.316 118.176 322.896L118.113 322.651Z"/><path fill="#353B3B" d="M118.113 322.651L118.71 322.134L119.503 323.373C118.746 325.585 118.528 326.884 118.393 329.258C118.061 328.411 118.448 327.957 117.545 326.26C117.953 324.931 118.211 324.316 118.176 322.896L118.113 322.651Z"/><path fill="#8F9093" d="M85.5425 196.522C86.3132 197.603 86.0045 197.484 87.0642 197.991C86.0723 200.156 88.2249 204.914 86.3389 206.376C85.1597 204.941 85.402 198.438 85.5425 196.522Z"/><path fill="#CED1D4" d="M95.6171 245.817C95.821 246.623 95.8424 246.914 95.9098 247.716C96.2425 249.137 96.478 249.974 96.4789 251.465C96.0844 252.527 95.5852 253.753 95.3699 254.848C95.056 253.092 94.0306 248.238 94.4479 246.745C94.9231 246.443 95.2151 246.212 95.6171 245.817Z"/><path fill="#6E7374" d="M96.4789 251.465L96.0113 251.245C95.4094 250.156 94.9897 248.684 95.9098 247.716C96.2425 249.137 96.478 249.974 96.4789 251.465Z"/><path fill="#8F9093" d="M103.615 296.278C102.934 296.131 102.823 296.186 102.316 295.743C102.183 293.907 101.435 293.286 101.43 292.269C103.07 292.057 103.202 293.879 104.651 292.462C105.12 292.956 105.384 293.551 105.365 294.244C103.994 294.637 104.099 294.95 103.615 296.278Z"/><path fill="#FCFBFC" d="M73.3149 226.444C74.5259 226.752 76.7329 226.576 77.3756 226.971C76.7386 229.6 73.9339 228.37 72.1795 227.86L71.8401 227.496C72.0771 226.843 72.4634 226.868 73.3149 226.444Z"/><path fill="#EBEBED" d="M116.423 341.427L116.805 341.597L117.647 341.064C118.439 342.6 119.175 343.581 118.962 345.294C117.748 345.621 117.903 345.796 116.977 345.424C116.463 344.619 116.529 342.532 116.423 341.427Z"/><path fill="#CED1D4" d="M118.176 322.896C118.211 324.316 117.953 324.931 117.545 326.26C116.798 327.664 116.335 328.818 114.952 329.663C114.74 328.548 117.465 324.021 118.176 322.896Z"/><path fill="#DBEBF1" d="M68.3379 217.214L69.4765 216.525L69.7881 216.642C69.6122 217.81 67.7194 220.069 66.9442 221.053L65.5386 221.092C66.7382 219.334 66.732 218.8 68.3379 217.214Z"/><path fill="#DBEBF1" d="M116.423 341.427C115.804 339.672 113.932 338.606 114.247 337.12L114.742 337.117C115.688 337.619 115.637 337.59 116.148 338.545L117.647 341.064L116.805 341.597L116.423 341.427Z"/><path fill="#FCFBFC" d="M118.648 330.871L119.148 330.706C120.37 331.532 119.888 332.583 120.045 333.996C118.947 333.777 119.095 333.974 118.382 333.327C118.104 332.411 118.391 331.811 118.648 330.871Z"/><path fill="#B3B2B4" d="M91.9782 225.941C91.9532 226.975 91.6607 228.582 92.6673 229.093L92.7111 229.297C92.4014 230.49 92.5732 231.412 91.8353 232.346C91.188 231.398 91.753 227.193 91.9782 225.941Z"/><path fill="#EBEBED" d="M81.3625 280.549C82.2909 280.832 81.9349 280.58 82.532 281.232C82.5489 283.749 80.1134 287.051 79.4298 289.497C78.3596 293.327 76.2933 297.243 75.1318 300.903C73.5466 305.898 72.6475 309.776 70.2799 314.639C67.5895 312.812 72.7268 306.284 72.6029 304.117C72.396 300.5 74.5387 299.665 75.5964 296.851C76.6944 293.93 77.6895 290.9 78.854 287.987C79.9908 284.172 79.4793 284.386 81.3625 280.549Z"/><path fill="#CED1D4" d="M85.1354 270.825C86.0049 271.058 85.7372 270.805 86.1348 271.412C86.1193 273.358 84.1883 277.716 83.0788 279.331C82.7674 279.302 82.5355 279.214 82.2288 279.127C81.8821 277.5 84.3768 272.473 85.1354 270.825Z"/><path fill="#FCFBFC" d="M68.8016 316.108L69.4298 316.419C70.2283 317.925 67.7783 322.73 66.5827 323.827L66.0082 323.508C65.8402 322.157 67.9877 317.329 68.8016 316.108Z"/><path fill="#2B2A2A" d="M89.5843 184.92C90.213 183.845 90.8818 183.816 91.208 182.202C90.4032 180.223 90.3928 179.953 91.1096 178.071C91.509 177.023 88.2195 172.513 87.7511 171.296C84.3007 162.329 93.2535 150.712 102.957 154.93C107.577 155.741 112.298 159.708 112.879 164.516L113.794 165.631L114.051 166.144L113.798 166.653L113.206 166.82C113.117 167.33 113.036 167.825 113.146 168.366C113.4 169.603 117.599 174.581 115.416 175.269C114.949 175.439 114.494 175.557 114.005 175.642C113.663 175.989 113.212 176.36 113.384 176.914C114.324 179.938 114.049 180.428 112.602 183.161C111.243 183.407 106.814 185.891 106.197 186.576C105.477 187.13 103.221 188.653 102.799 189.109C101.624 188.784 100.84 188.846 99.6922 188.089C99.1037 187.701 98.715 188.048 98.1407 188.332C97.4798 187.832 96.3863 186.731 95.8337 186.691C95.6592 187.517 95.6693 187.611 95.6627 188.42L95.2092 188.828C94.3983 188.452 94.177 188.147 93.5586 188.357C93.6178 189.166 93.662 189.275 93.8697 190.029L93.5102 190.104C92.5407 189.405 92.1686 188.856 91.878 187.745C92.436 187.584 92.2617 187.658 92.7843 187.34L92.2206 186.96C91.2052 186.05 90.7193 185.678 89.5843 184.92Z"/><path fill="#FCFBFC" d="M102.957 154.93C107.577 155.741 112.298 159.708 112.879 164.516C112.719 164.629 112.311 164.819 112.12 164.916C111.246 164.836 111.597 165.016 111.019 164.385C109.99 163.297 108.013 162.09 106.743 161.313C105.52 158.419 103.425 157.133 102.957 154.93Z"/><path fill="#6E7374" d="M110.231 179.338C109.119 179.032 108.446 179.022 108.292 177.785C109.504 175.773 110.137 175.098 107.883 173.992C107.798 173.251 109.294 171.193 109.81 170.383C109.466 170.053 109.277 169.851 108.96 169.503L109.043 169.034C109.931 168.042 110.725 168.391 111.69 167.534L111.726 168.285C111.445 168.44 110.882 168.721 110.952 169.085C111.342 171.113 109.99 177.276 110.581 178.69L110.231 179.338Z"/><path fill="#CED1D4" d="M111.69 167.534C112.297 167.044 112.446 167.081 113.206 166.82C113.117 167.33 113.036 167.825 113.146 168.366C113.4 169.603 117.599 174.581 115.416 175.269C114.375 172.744 111.978 169.502 111.726 168.285L111.69 167.534Z"/><path fill="#EBEBED" d="M111.019 164.385C111.597 165.016 111.246 164.836 112.12 164.916C112.311 164.819 112.719 164.629 112.879 164.516L113.794 165.631C112.587 166.585 109.075 167.688 107.456 168.304C108.543 166.831 109.849 165.938 111.019 164.385Z"/><path fill="#353B3B" d="M110.581 178.69C111.115 179.489 111.625 180.016 111.621 180.944C111.118 181.819 110.332 182.478 109.387 181.673C109.497 180.731 110.021 180.541 110.231 179.338L110.581 178.69Z"/><path fill="#4D5156" d="M94.3436 173.412C95.8016 173.908 96.4525 174.927 96.4564 176.415C95.101 176.227 94.2711 174.719 94.3436 173.412Z"/><path fill="#FCFBFC" d="M226.707 188.504C231.31 188.568 239.281 187.772 243.076 189.956C245.265 191.231 246.824 193.36 247.38 195.832C248.82 202.413 244.045 205.696 238.276 206.678C242.882 211.105 246.145 217.305 251.141 222.602L244.188 222.498C243.04 222.338 234.731 209.198 232.72 207.197C232.786 212.066 232.691 217.7 232.961 222.494L226.733 222.505C226.903 211.172 226.894 199.837 226.707 188.504Z"/><path fill="#0078BF" d="M232.832 191.254C235.246 191.202 237.049 191.054 239.163 192.586C240.555 193.596 241.487 195.119 241.752 196.818C242.123 199.169 241.29 201.152 239.915 202.993C237.538 205.013 235.776 204.788 232.791 204.746C232.752 200.249 232.766 195.751 232.832 191.254Z"/><path fill="#FCFBFC" d="M189.275 237.99C194.443 237.961 202.566 237.151 206.609 240.111C208.558 241.535 209.828 243.704 210.118 246.101C210.399 248.296 209.767 250.511 208.369 252.228C206.267 254.858 204.14 255.354 201.081 255.701C202.924 258.844 211.154 269.332 213.684 271.705C211.1 271.786 208.758 271.763 206.18 271.718C202.686 266.959 198.189 260.914 195.232 255.959C195.274 261.08 195.276 266.68 195.559 271.764L189.264 271.771C189.587 261.082 189.498 248.687 189.275 237.99Z"/><path fill="#0078BF" d="M195.43 240.482C197.967 240.497 199.862 240.413 201.981 242.144C203.356 243.27 204.223 244.9 204.389 246.67C204.611 248.986 203.769 250.499 202.419 252.208C200.022 254.314 198.504 254.07 195.426 254.063C195.154 250.21 195.282 244.413 195.43 240.482Z"/><path fill="#FCFBFC" d="M159.844 188.486L166.056 188.482C165.878 193.347 165.909 198.744 165.956 203.593C170.226 203.805 176.145 203.668 180.398 203.552C180.421 198.533 180.364 193.514 180.226 188.497C182.3 188.507 184.375 188.495 186.449 188.462C186.185 191.313 186.275 195.51 186.273 198.439L186.28 214.396C186.283 216 186.441 221.168 186.297 222.378L185.813 222.521L180.249 222.516C180.402 217.126 180.427 211.734 180.322 206.343C177.651 206.518 168.409 206.574 165.867 206.339C165.819 211.623 165.953 217.239 166.035 222.529L159.933 222.496C160.004 220.816 160.013 218.878 159.968 217.184C159.716 207.761 160.416 197.852 159.844 188.486Z"/><path fill="#FCFBFC" d="M281.5 237.993C283.481 238.013 285.506 237.985 287.491 237.98C287.096 247.746 287.51 257.698 287.383 267.478C287.368 268.637 287.661 270.591 287.354 271.62L286.812 271.746L281.521 271.78C281.678 266.358 281.718 260.933 281.643 255.51C277.458 255.825 271.362 255.623 267.041 255.577C266.994 260.496 266.919 266.931 267.234 271.759L261.222 271.732C261.695 261.381 261.393 248.432 261.246 237.982C263.248 237.991 265.249 237.982 267.251 237.958C266.988 242.867 267.045 248.043 267.023 252.978L281.559 252.986C281.66 247.988 281.64 242.989 281.5 237.993Z"/><path fill="#FCFBFC" d="M203.616 188.509C205.131 188.52 206.736 188.469 208.259 188.446C211.058 195.885 213.939 203.313 216.475 210.845C217.816 214.828 219.212 218.712 220.904 222.562C218.794 222.499 216.612 222.495 214.494 222.462C213.667 219.601 211.922 214.946 210.802 212.141C210.196 211.704 210.15 211.882 209.193 211.937C205.588 211.967 202.01 212.02 198.406 211.902C197.16 215.355 196.013 219.161 194.941 222.677C193.748 222.538 192.808 222.616 191.616 222.666C195.213 213.885 197.816 204.934 201.114 196.046C202.003 193.65 203.035 190.972 203.616 188.509Z"/><path fill="#0078BF" d="M204.215 194.858C204.376 194.959 204.537 195.061 204.698 195.163C206.474 199.458 207.716 204.926 209.837 209.021L205.313 209.138C203.278 209.159 201.46 209.009 199.404 209.232C200.782 205.143 203.257 198.812 204.215 194.858Z"/><path fill="#FCFBFC" d="M342.155 237.931C343.405 238.034 345.567 237.975 346.887 237.978C347.913 241.666 350.042 246.921 351.409 250.655C353.722 256.973 356.418 265.868 359.417 271.745L352.737 271.754C352.214 269.45 350.216 263.727 349.029 261.497C348.849 261.161 348.314 261.257 347.812 261.232C344.11 261.258 340.408 261.256 336.706 261.224C335.936 264.308 334.161 268.32 333.231 271.761L329.933 271.769C332.071 267.262 333.375 262.59 335.042 257.897C337.399 251.262 339.953 244.612 342.155 237.931Z"/><path fill="#0078BF" d="M342.806 244.426C343.307 244.963 347.331 256.65 348.248 258.682L343.813 258.671L337.68 258.664C339.235 254.991 341.432 247.137 342.806 244.426Z"/><path fill="#FCFBFC" d="M301.774 237.897C302.635 238.181 305.751 243.186 306.513 244.267L316.373 258.088C318.237 260.68 320.013 262.807 321.54 265.625C321.105 261.814 321.21 256.797 321.215 252.902C321.256 247.87 321.178 242.837 320.982 237.809C321.892 237.89 322.902 237.908 323.821 237.944C323.652 244.217 323.752 250.774 323.734 257.071C323.721 261.614 323.592 267.302 323.885 271.769C322.372 271.812 320.851 271.776 319.337 271.756C317.102 269.317 314.013 264.522 311.98 261.618C308.064 256.024 303.214 249.881 299.758 244.059C300.297 253.178 299.632 262.727 300.111 271.838C299.09 271.775 297.955 271.779 296.923 271.759C297.345 261.39 297.048 248.45 296.965 237.998C298.604 238.013 300.136 237.959 301.774 237.897Z"/><path fill="#FCFBFC" d="M177.455 237.67C178.961 238.144 180.131 237.803 181.688 237.558C177.641 241.914 173.984 247.529 169.644 252.404C174.527 257.473 178.931 266.128 184.416 271.718L177.087 271.791C174.735 267.505 168.732 260.495 165.663 255.648L165.793 259.881C165.996 263.754 165.921 267.799 166.093 271.744L159.8 271.709C160.116 269.242 160.052 260.143 159.99 257.185C159.874 251.64 160.29 243.233 159.795 238L166.075 237.953C165.811 243.164 166.174 247.799 165.441 253.059C168.146 249.938 175.377 240.893 177.455 237.67Z"/><path fill="#FCFBFC" d="M242.842 237.573C246.29 237.258 248.913 238.17 252.164 239.128C251.982 240.383 251.681 241.819 251.444 243.082C247.791 241.146 240.494 237.122 238.275 245.125C237.813 247.867 242.742 250.567 244.666 251.256C257.799 255.961 257.319 271.303 242.17 272.272C238.357 272.136 236.202 271.249 232.685 269.751C233.451 267.97 233.655 267.122 234.084 265.195C237.399 268.67 243.225 271.71 247.25 266.867C250.507 262.948 246.526 258.582 242.783 257.169C241.333 256.622 239.136 255.186 237.721 254.387C232.862 251.269 231.656 246.184 235.05 241.384C236.911 238.752 239.86 238.058 242.842 237.573Z"/><path fill="#FCFBFC" d="M256.416 188.494L266.901 188.511C268.728 188.507 271.995 188.375 273.701 188.665C274.152 189.45 274.06 190.446 274.078 191.383C270.284 191.208 266.24 191.287 262.421 191.301L262.364 203.969L274.182 203.848C274.102 204.767 274.082 205.747 274.046 206.673L262.36 206.568L262.39 208.438L262.446 219.49L274.094 219.47L274.011 222.517L256.423 222.518C256.679 211.627 256.588 199.408 256.416 188.494Z"/><path fill="#FCFBFC" d="M199.718 285.828C201.356 285.839 203.285 286.182 204.723 286.967C206.813 288.128 208.324 290.109 208.891 292.432C210.452 298.607 207.69 303.517 201.34 304.798C196.213 304.841 192.274 302.998 191.314 297.399C190.26 291.257 193.405 286.658 199.718 285.828Z"/><path fill="#0078BF" d="M199.054 287.547C201.936 287.412 204.659 288.425 205.522 291.334C206.867 295.871 206.523 301.424 201.41 303.075C194.13 303.933 193.421 295.51 195.497 290.481C196.194 288.792 197.382 288.08 199.054 287.547Z"/><path fill="#FCFBFC" d="M219.201 237.995L225.408 237.966C225.122 240.859 225.275 246.625 225.277 249.604L225.302 271.731C223.944 271.852 220.687 271.744 219.185 271.74C219.604 261.507 219.36 248.329 219.201 237.995Z"/><path fill="#FCFBFC" d="M268.843 286.233C269.896 286.185 270.156 286.138 271.167 286.351C272.673 287.407 275.706 298.872 276.346 301.237C277.855 298.015 278.634 294.259 279.991 290.968C280.741 289.149 281.291 285.177 284.018 286.587C284.775 288.205 286.454 301.988 286.783 304.53C285.925 304.523 284.595 304.626 283.98 304.152C283.291 301.766 282.632 295.494 282.345 292.811C282.26 291.999 282.381 291.887 281.974 291.299C280.119 292.275 278.174 305.059 275.55 304.63C273.669 302.952 270.769 293.22 269.776 290.306C269.312 293.228 268.17 301.763 267.382 304.167C266.712 304.704 267.075 304.621 266.326 304.615C265.552 303.174 268.552 288.897 268.843 286.233Z"/><path fill="#FCFBFC" d="M175.389 285.947C176.02 286.069 176.153 286.123 176.762 286.313C177.39 287.327 179.449 302.464 179.61 304.545L176.822 304.439C176.124 300.071 175.557 295.684 175.122 291.282L174.881 291.1C173.032 292.202 171.59 303.577 168.643 304.489C165.45 303.511 164.683 292.558 162.364 291.259C161.854 295.092 161.194 300.003 160.39 303.843C160.283 304.353 159.697 304.556 159.288 304.698L158.994 304.347C158.934 300.014 160.653 293.882 161.185 289.476C161.338 288.21 162.03 285.764 163.684 286.128C165.578 287.746 168.258 298.063 169.086 301.048C171.092 297.321 173.115 288.109 175.389 285.947Z"/><path fill="#FCFBFC" d="M295.757 162.021C300.114 161.882 305.477 161.412 306.413 167.386C306.792 169.803 305.726 171.766 304.146 173.536C301.759 175.579 298.961 175.117 295.961 175.002C295.771 170.829 295.808 166.227 295.757 162.021Z"/><path fill="#016EC1" d="M298.391 163.232C299.531 163.334 300.959 163.4 301.958 163.986C302.952 164.578 303.67 165.542 303.953 166.665C304.409 168.421 303.782 171.003 302.889 172.568C301.259 173.673 300.32 173.512 298.349 173.561C298.304 170.411 298.185 166.308 298.391 163.232Z"/><path fill="#FCFBFC" d="M321.552 285.91C322.116 285.977 323.423 286.185 323.798 286.551C327.896 290.549 331.099 296.485 334.693 300.873C334.546 298.785 334.02 287.361 334.77 286.211L335.378 286.121L335.755 286.464C336.37 288.613 335.872 301.98 335.752 304.65C332.167 304.648 325.184 293.032 322.975 289.857C323.035 293.992 323.077 298.329 323.03 302.477C323.021 303.216 322.631 304.173 322.018 304.672L321.694 304.475C321.3 302.511 321.462 288.677 321.552 285.91Z"/><path fill="#FCFBFC" d="M239.998 162.022C241.967 161.982 246.198 161.499 247.395 163.418C248.802 165.675 248.343 166.597 246.034 167.681C246.842 169.07 248.391 169.796 248.432 171.676C248.463 173.126 246.122 174.508 245.018 175.061C244.039 175.051 242.695 175.088 241.766 174.911C241.086 174.929 240.728 175.018 240.17 174.643C239.866 173.256 239.993 164.057 239.998 162.022Z"/><path fill="#016EC1" d="M242.488 168.408C248.292 169.223 245.876 174.168 242.767 173.58C242.258 173.175 242.388 173.378 242.159 172.807C242.345 171.158 242.063 170.212 242.488 168.408Z"/><path fill="#016EC1" d="M242.357 167.566C242.219 165.799 241.89 164.833 242.923 163.45C244.467 162.75 245.266 163.851 246.117 165.024C245.685 166.021 245.502 166.797 244.618 167.357C243.616 167.576 243.398 167.566 242.357 167.566Z"/><path fill="#FCFBFC" d="M299.236 286.313C301.076 286.265 307.981 285.656 308.919 287.007C307.742 288.105 304.156 287.843 302.4 287.871C302.495 289.881 302.459 292.178 302.474 294.211C302.596 294.947 302.772 295.354 302.574 296.007L302.427 296.26C302.452 298.415 302.497 300.597 302.495 302.75C304.185 302.718 307.525 302.498 308.849 303.425L308.799 303.756C306.964 304.9 301.35 304.751 299.251 304.349C299.31 298.337 299.305 292.325 299.236 286.313Z"/><path fill="#EBEBED" d="M299.251 304.349C304.995 303.553 300.773 300.234 302.427 296.26C302.452 298.415 302.497 300.597 302.495 302.75C304.185 302.718 307.525 302.498 308.849 303.425L308.799 303.756C306.964 304.9 301.35 304.751 299.251 304.349Z"/><path fill="#FCFBFC" d="M245.005 286.302C246.836 286.221 253.672 285.701 254.847 286.642L254.841 287.127C253.609 288.225 250.017 287.822 248.072 287.819C248.142 289.99 248.106 292.031 248.068 294.197C248.16 294.808 248.267 295.338 248.278 295.956C247.867 297.464 248.109 301.005 248.175 302.73C249.947 302.766 253.232 302.3 254.515 303.214C254.742 303.969 254.774 303.622 254.496 304.295C252.465 304.885 247.315 304.512 245.015 304.42C245.055 298.381 245.051 292.341 245.005 286.302Z"/><path fill="#FCFBFC" d="M168.059 162.001C169.354 161.981 171.703 161.797 172.832 162.193C178.564 164.202 177.318 167.176 172.55 168.827C173.576 169.821 177.311 173.655 176.449 174.991C175.688 175.162 175.402 174.953 174.675 174.654C173.107 172.908 171.613 170.48 170.308 168.483C170.274 170.447 171.35 173.944 169.544 174.99C168.628 174.9 168.958 175.105 168.384 174.594C167.972 171.938 168.067 164.99 168.059 162.001Z"/><path fill="#016EC1" d="M170.581 163.096C173.367 163.424 174.767 164.463 173.389 167.351C169.571 169.653 170.416 165.366 170.581 163.096Z"/><path fill="#FCFBFC" d="M218.503 162.029C220.969 161.968 225.654 161.542 226.487 164.446C227.224 167.011 224.843 168.217 223.03 168.812C224.555 170.445 226.383 172.396 226.603 174.675L226.382 175.075C224.434 174.888 221.701 170.14 220.51 168.398C220.634 170.364 221.592 173.505 220.104 174.927C219.155 175.038 219.547 175.159 218.848 174.735C218.27 173.282 218.584 164.48 218.503 162.029Z"/><path fill="#016EC1" d="M221.11 163.086C223.968 163.398 225.59 164.753 223.578 167.527C220.045 169.698 220.518 165.128 221.11 163.086Z"/><path fill="#FCFBFC" d="M347.202 286.39C349.902 286.138 357.218 286.096 359.742 286.401C360.296 286.864 360.11 286.568 360.216 287.375L359.802 287.772C358.556 288.155 356.39 287.999 354.99 287.97L355.009 300.41L355.014 304.484C353.99 304.496 353.216 304.601 352.278 304.215C351.914 302.091 352.126 290.521 352.213 287.974C350.77 287.966 347.613 288.108 346.51 287.274L346.509 286.823L347.202 286.39Z"/><path fill="#FCFBFC" d="M275.783 162.031C278.218 161.993 280.591 161.597 282.802 162.931C284.544 163.982 285.371 166.014 283.673 167.629C282.051 169.171 280.407 169.285 278.292 169.3C278.182 170.947 278.756 174.13 277.392 175.107C274.771 174.422 275.753 164.637 275.783 162.031Z"/><path fill="#016EC1" d="M278.385 163.13C281.304 163.377 283.43 164.592 281.322 167.669C279.918 168.119 279.451 168.563 278.366 167.506C277.884 166.2 278.214 164.553 278.385 163.13Z"/><path fill="#FCFBFC" d="M210.968 169.376C211.023 170.734 211.565 174.287 210.281 174.949C209.315 174.914 209.269 175.082 208.646 174.601C208.394 172.503 208.473 164.483 208.606 162.335C209.171 161.913 210.179 162 210.944 161.979C215.56 161.991 216.48 162.21 217.037 166.897C214.79 169.129 214.072 169.204 210.968 169.376Z"/><path fill="#EBEBED" d="M210.968 169.376C211.023 170.734 211.565 174.287 210.281 174.949C209.315 174.914 209.269 175.082 208.646 174.601C208.394 172.503 208.473 164.483 208.606 162.335C209.171 161.913 210.179 162 210.944 161.979L210.757 162.743L211.033 163.157C210.963 164.649 210.601 166.978 211.457 168.066L211.983 168.269L210.803 168.397L210.605 168.721L210.968 169.376Z"/><path fill="#016EC1" d="M211.033 163.157C216.083 163.372 216.264 167.346 211.983 168.269L211.457 168.066C210.601 166.978 210.963 164.649 211.033 163.157Z"/><path fill="#FCFBFC" d="M231.281 164.28C231.652 163.288 231.707 162.795 232.521 162.213C233.039 162.158 233.485 162.054 233.886 162.599C235.242 164.439 237.826 172.571 238.227 174.561C237.73 175.069 236.767 174.992 236.13 174.757C235.627 173.952 235.309 171.801 235.102 170.766C233.803 170.777 231.647 170.739 230.415 170.864C228.662 173.078 230.265 175.407 226.382 175.075L226.603 174.675C227.962 173.78 230.357 166.424 231.281 164.28Z"/><path fill="#DBEBF1" d="M231.281 164.28C231.894 165.158 231.506 164.85 232.473 165.259C232.004 165.99 230.89 168.829 230.993 169.606C230.471 170.055 230.334 170.089 229.723 170.407L229.704 170.696L230.415 170.864C228.662 173.078 230.265 175.407 226.382 175.075L226.603 174.675C227.962 173.78 230.357 166.424 231.281 164.28Z"/><path fill="#016EC1" d="M232.473 165.259C233.713 165.654 233.566 167.732 234.812 169.341C233.656 169.419 232.116 169.481 230.993 169.606C230.89 168.829 232.004 165.99 232.473 165.259Z"/><path fill="#FCFBFC" d="M288.337 161.934L289.628 162.054C290.599 162.79 294.085 173.078 294.391 174.598L294.122 174.94C290.469 175.298 292.687 171.78 290.222 170.781C289.053 170.754 287.419 170.599 286.37 170.96C285.102 172.195 285.447 174.327 283.984 174.984L283.676 174.731C283.786 172.311 286.951 164.014 288.337 161.934Z"/><path fill="#016EC1" d="M288.103 165.041C288.442 165.137 288.616 165.256 288.934 165.42C289.305 166.259 290.226 168.255 290.31 169.109L289.724 169.617L286.553 169.21C287.172 167.837 287.613 166.463 288.103 165.041Z"/><path fill="#FCFBFC" d="M218.716 286.226L222.284 286.247C222.422 286.791 223.494 290.044 223.708 290.439C224.61 292.109 226.278 300.019 227.121 300.679L228.691 300.853L228.914 301.245C228.454 302.728 228.136 304.604 226.307 304.683C225.794 304.475 225.414 304.209 225.181 303.689C222.669 298.062 221.166 291.913 218.716 286.226Z"/><path fill="#FCFBFC" d="M194.379 170.639C192.964 171.781 193.366 173.844 191.59 174.984C190.98 173.53 195.17 162.69 196.538 161.794L196.991 161.905C198.079 164.153 201.717 172.427 201.609 174.574L201.279 175.051C198.989 174.984 198.907 172.575 198.19 170.735C196.578 170.811 196.005 170.828 194.379 170.639Z"/><path fill="#016EC1" d="M196.245 163.997C196.657 165.686 196.916 167.493 197.748 168.997C197.886 169.549 198.03 170.2 198.19 170.735C196.578 170.811 196.005 170.828 194.379 170.639L194.353 169.274C195.05 167.566 195.644 165.747 196.245 163.997Z"/><path fill="#DBEBF1" d="M197.748 168.997C197.886 169.549 198.03 170.2 198.19 170.735C196.578 170.811 196.005 170.828 194.379 170.639L194.353 169.274C195.569 169.58 196.676 169.71 197.748 168.997Z"/><path fill="#FCFBFC" d="M310.352 164.443C310.792 163.467 310.966 162.774 311.844 162.203C312.201 162.162 312.395 162.046 312.708 162.279C313.436 162.819 317.186 172.793 317.553 174.378L317.375 174.877C314.251 175.969 314.932 172.343 313.933 171.157C312.91 170.696 311.864 170.746 310.722 170.683L311.299 169.447L309.904 169.188C309.815 169.12 308.817 168.673 308.646 168.594C309.203 166.862 309.552 166.089 310.352 164.443Z"/><path fill="#016EC1" d="M310.352 164.443C310.951 164.821 311.09 164.987 311.79 165.07L312.347 165.369L312.396 165.596C312.71 167 313.235 167.527 313.181 168.992C312.586 169.532 312.267 169.49 311.299 169.447L309.904 169.188C309.815 169.12 308.817 168.673 308.646 168.594C309.203 166.862 309.552 166.089 310.352 164.443Z"/><path fill="#DBEBF1" d="M310.352 164.443C310.951 164.821 311.09 164.987 311.79 165.07C310.865 166.479 310.549 167.663 309.904 169.188C309.815 169.12 308.817 168.673 308.646 168.594C309.203 166.862 309.552 166.089 310.352 164.443Z"/><path fill="#FCFBFC" d="M325.895 161.801C327.384 161.803 328.405 161.807 329.476 162.914L329.293 163.243C327.517 163.722 325.366 162.622 324.32 164.16C323.431 165.308 325.266 166.604 326.222 166.949C331.21 168.748 332.158 173.51 326.082 175.376C325.874 175.356 325.666 175.335 325.459 175.312C323.946 175.144 321.845 174.728 322.319 172.682C323.945 172.357 324.97 174.966 328.044 172.796C328.899 169.945 322.514 168.388 322.283 165.431C322.098 163.064 323.907 162.106 325.895 161.801Z"/><path fill="#FCFBFC" d="M326.313 329.706L326.589 328.86C327.803 328.368 328.464 329.785 328.857 330.792C329.572 332.626 332.486 337.879 331.372 339.529C329 339.628 329.686 337.473 328.583 336.092L325.315 336.002C324.441 337.934 323.848 339.218 322.772 341.028C323.179 336.684 324.32 333.583 326.313 329.706Z"/><path fill="#DBEBF1" d="M326.313 329.706C326.789 332.218 328.838 333.949 328.583 336.092L325.315 336.002C324.441 337.934 323.848 339.218 322.772 341.028C323.179 336.684 324.32 333.583 326.313 329.706Z"/><path fill="#EBEBED" d="M256.738 330.981C256.716 333.804 256.796 336.752 256.386 339.527L255.922 339.784C255.105 337.864 254.682 329.945 255.877 328.651C258.544 328.458 260.931 335.385 262.913 336.028L263.651 336.182C264.184 337.046 263.966 338.207 264.054 339.275L263.71 339.665L263.157 339.675C261.436 338.585 257.899 332.905 256.738 330.981Z"/><path fill="#FCFBFC" d="M162.648 173.661C163.48 173.149 163.722 173.034 164.248 172.218C164.729 168.848 158.047 168.763 158.159 165.185C158.259 161.985 164.081 160.586 165.62 162.979L165.412 163.347C162.959 163.861 162.714 162.373 160.69 164C160.484 164.496 160.239 164.857 160.649 165.402C162.26 167.546 166.635 168.216 166.575 171.462C166.551 172.76 164.623 174.409 163.529 174.917C163.254 173.962 163.491 174.395 162.648 173.661Z"/><path fill="#FCFBFC" d="M161.867 328.525C163.418 328.45 165.407 328.403 166.31 329.911C165.529 330.813 156.945 328.48 160.091 335.987C161.299 338.87 162.813 338.614 165.425 337.565C165.813 337.488 165.586 337.491 166.098 337.672L166.098 338.261C164.069 341.327 159.195 339.652 157.917 336.491C157.278 334.911 157.319 333.138 158.029 331.589C158.889 329.746 160.058 329.168 161.867 328.525Z"/><path fill="#EBEBED" d="M227.159 328.619C229.07 328.55 230.37 328.835 232.165 329.375C230.042 329.804 228.182 329.429 226.976 330.274C224.614 333.805 229.117 332.775 230.411 333.82L230.298 334.193C229.309 334.573 227.731 334.511 226.616 334.544C226.531 335.61 226.509 336.764 226.466 337.84C227.668 338.424 229.613 337.914 230.532 339.117C229.532 339.745 225.948 339.513 224.654 339.491C224.53 337.627 224.391 330.705 224.67 329.039C225.311 328.651 226.363 328.674 227.159 328.619Z"/><path fill="#EBEBED" d="M183.718 174.893C183.716 172.744 183.332 163.514 183.988 162.179C184.832 161.909 184.915 161.976 185.781 162.06C186.645 163.544 186.239 171.276 186.197 173.526C186.482 174.397 186.676 174.5 187.325 175.126L183.718 174.893Z"/><path fill="#FCFBFC" d="M178.586 161.992C179.447 161.984 180.181 161.892 180.801 162.339C181.103 164.45 180.888 172.396 180.889 174.937C179.863 175.007 179.357 175.034 178.655 174.448C178.309 171.749 178.512 164.988 178.586 161.992Z"/><path fill="#FCFBFC" d="M252.783 168.753C252.705 170.697 253.174 173.331 252.354 174.668C251.521 175.192 251.939 175.132 251.089 175.011C250.109 173.9 250.034 163.731 251.286 162.12C252.084 161.788 251.684 161.813 252.527 162.062C252.95 163.991 252.522 165.715 252.93 167.587C252.942 168.278 253.052 168.241 252.783 168.753Z"/><path fill="#FCFBFC" d="M258.252 167.588C258.255 166.372 258.138 163.077 258.521 162.11C259.404 161.998 259.382 161.962 260.273 162.252C260.885 163.841 260.989 173.881 259.464 175.06C258.707 175.028 259.012 175.171 258.501 174.656C258.028 172.649 258.401 170.788 258.278 168.779L258.252 167.588Z"/><path fill="#EBEBED" d="M227.121 300.679C229.222 297.525 230.747 288.438 233.327 286.256L233.594 286.471C233.645 288.867 229.946 299.415 228.914 301.245L228.691 300.853L227.121 300.679Z"/><path fill="#FCFBFC" d="M289.49 329.353L289.661 328.774C292.107 327.911 295.24 334.59 296.896 336.246C297.36 336.688 297.093 336.54 297.688 336.705C298.148 337.442 297.932 338.347 298.036 339.312L297.744 339.758C296.06 339.645 292.547 333.312 291.296 331.695L291.123 331.474C290.226 330.132 290.332 331.427 289.49 329.353Z"/><path fill="#FCFBFC" d="M192.781 334.323C192.673 336.171 193.21 338.712 191.622 339.926C191.45 339.893 191.098 339.907 191.03 339.678C190.389 337.513 189.618 330.005 191.637 328.619C192.405 328.675 192.098 328.515 192.643 328.95C192.719 330.371 192.765 331.794 192.783 333.218L192.781 334.323Z"/><path fill="#FCFBFC" d="M356.626 328.673C357.535 328.67 357.787 328.622 358.662 328.932C359.012 330.338 358.783 337.822 358.758 339.628C358.189 339.585 357.669 339.511 357.106 339.433C356.323 338.572 356.607 330.322 356.626 328.673Z"/><path fill="#FCFBFC" d="M264.612 173.974C264.426 173.744 264.054 173.266 263.922 173.032C262.834 171.103 262.546 162.826 264.495 161.685C265.757 162.573 265.053 170.177 265.635 172.54C265.219 173.666 265.544 173.203 264.612 173.974Z"/><path fill="#FCFBFC" d="M196.834 333.189C196.808 331.765 196.725 330.36 196.918 328.954C197.565 328.485 197.204 328.666 198.185 328.677C199.554 330.035 199.243 337.454 198.368 339.223L197.88 339.578C197.52 339.498 197.215 339.522 197.123 339.26C196.749 338.185 196.827 335.611 196.819 334.483L196.834 333.189Z"/><path fill="#DBEBF1" d="M270.484 173.457C273.768 171.118 270.616 164.31 272.387 162.19L272.908 162.071C274.449 163.528 274.219 171.813 272.502 173.603C272.225 173.892 271.589 174.361 271.24 174.61C270.798 174.103 270.794 174.063 270.484 173.457Z"/><path fill="#DBEBF1" d="M289.49 329.353C290.332 331.427 290.226 330.132 291.123 331.474C290.293 332.915 291.973 338.862 290.233 339.861C288.934 338.548 289.554 331.754 289.49 329.353Z"/><path fill="#EBEBED" d="M296.896 336.246C297.782 334.361 295.988 330.122 297.358 328.764L297.939 328.72C299.062 329.901 298.341 337.545 298.036 339.312C297.932 338.347 298.148 337.442 297.688 336.705C297.093 336.54 297.36 336.688 296.896 336.246Z"/><path fill="#EBEBED" d="M248.068 294.197C249.865 294.223 252.863 294.117 254.501 294.52L254.792 294.916C254.327 296.662 249.901 296.016 248.278 295.956C248.267 295.338 248.16 294.808 248.068 294.197Z"/><path fill="#DBEBF1" d="M308.646 168.594C308.817 168.673 309.815 169.12 309.904 169.188L311.299 169.447L310.722 170.683C308.18 171.124 308.934 174.115 306.82 174.969C306.443 173.879 308.163 169.969 308.646 168.594Z"/><path fill="#DBEBF1" d="M262.913 336.028C263.081 334.381 262.338 329.042 263.571 328.464C264.639 329.767 264.41 337.52 264.054 339.275C263.966 338.207 264.184 337.046 263.651 336.182L262.913 336.028Z"/><path fill="#EBEBED" d="M302.474 294.211C304.27 294.19 307.044 293.924 308.44 294.977L308.39 295.367C306.509 296.349 304.713 296.066 302.574 296.007C302.772 295.354 302.596 294.947 302.474 294.211Z"/><path fill="#EBEBED" d="M265.635 172.54C266.884 173.527 267.763 173.802 269.41 173.616C269.769 173.572 270.128 173.519 270.484 173.457C270.794 174.063 270.798 174.103 271.24 174.61C268.825 175.673 266.697 175.647 264.612 173.974C265.544 173.203 265.219 173.666 265.635 172.54Z"/><path fill="#EBEBED" d="M163.529 174.917C161.748 175.758 158.485 175.258 158.008 173.08C159.154 172.506 161.097 173.618 162.648 173.661C163.491 174.395 163.254 173.962 163.529 174.917Z"/><path fill="#EBEBED" d="M252.93 167.587C254.704 167.554 256.478 167.554 258.252 167.588L258.278 168.779L252.783 168.753C253.052 168.241 252.942 168.278 252.93 167.587Z"/><path fill="#FCFBFC" d="M319.206 161.744C321.538 162.486 320.62 164.614 320.238 166.661C319.401 166.386 319.761 166.608 319.145 165.925C318.675 164.408 318.702 163.243 319.206 161.744Z"/><path fill="#DBEBF1" d="M186.197 173.526C187.516 173.499 189.341 173.245 190.294 174.285C189.816 175.228 188.3 175.089 187.325 175.126C186.676 174.5 186.482 174.397 186.197 173.526Z"/><path fill="#DBEBF1" d="M192.783 333.218L196.834 333.189L196.819 334.483C195.483 334.371 194.124 334.358 192.781 334.323L192.783 333.218Z"/></svg>
